<svg width="16" height="16" viewBox="0 0 16 16" fill="none" xmlns="http://www.w3.org/2000/svg">
<path d="M9.62025 7.17683L7.14783 9.64925C6.94983 9.84724 6.68957 9.90947 6.49155 9.70013C6.28787 9.47385 6.33314 9.26451 6.55379 9.03818L9.00923 6.55446L8.52267 6.07356L3.95125 10.645C2.20302 12.3932 3.04601 12.1216 2.09552 13.4625L2.60471 14C3.90033 13.0551 3.72494 13.983 5.50146 12.2121L10.0899 7.65204L9.62025 7.17683ZM10.9668 8.20088L11.1252 8.02548C11.4024 7.73691 11.4194 7.39746 11.1196 7.10325L10.9498 6.9392C11.8154 6.16408 12.7773 6.05658 13.3713 5.45121C14.2143 4.60255 13.9428 3.41444 13.3487 2.82038C12.7603 2.22066 11.5835 1.96606 10.7179 2.79774C10.1068 3.38615 10.005 4.35361 9.22986 5.21924L9.06581 5.04951C8.77724 4.75531 8.43215 4.76663 8.14358 5.04385L7.97388 5.20227C7.62309 5.53607 7.69097 5.83027 7.98518 6.13013L10.0389 8.18388C10.3388 8.48374 10.6386 8.54597 10.9668 8.20088Z" fill="#939CA3"/>
</svg>
