<svg width="16" height="16" viewBox="0 0 16 16" fill="none" xmlns="http://www.w3.org/2000/svg">
<path d="M11.2829 8.00944C11.2829 10.1166 11.2829 12.2241 11.2825 14.3313C11.2825 14.4097 11.2829 14.4887 11.2729 14.5658C11.2424 14.8062 11.0534 14.9852 10.8234 14.9991C10.5873 15.013 10.3787 14.8663 10.3182 14.6353C10.2999 14.5663 10.2938 14.4918 10.2938 14.4196C10.2925 10.1435 10.2925 5.86733 10.2929 1.59119C10.2929 1.16017 10.6313 0.889715 10.9767 1.04356C11.1488 1.12025 11.2542 1.25705 11.2751 1.4526C11.2834 1.53019 11.2825 1.60913 11.2829 1.68762C11.2834 3.79475 11.2829 5.90232 11.2829 8.00944Z" fill="#939CA3"/>
<path d="M4.71718 7.99509C4.71718 6.03911 4.71718 4.08314 4.71718 2.12717C4.71718 1.7244 4.89881 1.47862 5.20327 1.4831C5.46636 1.48669 5.71115 1.66968 5.71071 2.12851C5.70418 6.05705 5.70723 9.98604 5.70679 13.9146C5.70679 14.2855 5.51819 14.5192 5.21852 14.5232C4.97329 14.5264 4.76422 14.3478 4.72807 14.0976C4.71674 14.0204 4.71761 13.941 4.71761 13.863C4.71718 11.9066 4.71718 9.95061 4.71718 7.99509Z" fill="#939CA3"/>
<path d="M8.43345 7.99867C8.43345 6.39568 8.43301 4.79314 8.43432 3.19015C8.43432 3.10672 8.43781 3.02106 8.45654 2.94032C8.51055 2.70799 8.72702 2.54473 8.95091 2.55774C9.1835 2.57165 9.37471 2.74522 9.41217 2.98249C9.4235 3.0538 9.42437 3.12736 9.4248 3.20001C9.42524 6.40017 9.42568 9.60032 9.4235 12.8005C9.4235 12.9059 9.41871 13.0162 9.38865 13.1153C9.32332 13.3293 9.1125 13.4607 8.8921 13.4463C8.6839 13.4324 8.49966 13.2737 8.45436 13.0579C8.43737 12.9767 8.43476 12.8915 8.43476 12.8076C8.43301 11.2047 8.43345 9.60166 8.43345 7.99867Z" fill="#939CA3"/>
<path d="M13.1402 8.01661C13.1402 9.33884 13.1411 10.6611 13.1389 11.9828C13.1389 12.0824 13.1354 12.1874 13.1049 12.2802C13.0304 12.508 12.8079 12.6363 12.5748 12.604C12.3614 12.5744 12.1854 12.3847 12.1567 12.1501C12.151 12.1057 12.1528 12.0609 12.1528 12.016C12.1528 9.34377 12.1523 6.67152 12.1536 3.99927C12.1536 3.92167 12.1593 3.84139 12.1793 3.76739C12.2416 3.53506 12.4607 3.37763 12.6816 3.39691C12.9276 3.41844 13.1162 3.6113 13.1363 3.86561C13.1415 3.93244 13.1402 3.99972 13.1402 4.06699C13.1402 5.38338 13.1402 6.69977 13.1402 8.01661Z" fill="#939CA3"/>
<path d="M2.85948 8.01437C2.85948 6.8433 2.85861 5.67268 2.86078 4.5016C2.86078 4.40203 2.86427 4.29663 2.89432 4.20424C2.96706 3.98312 3.18572 3.85485 3.41091 3.8831C3.63523 3.91091 3.80728 4.08449 3.84038 4.3222C3.84909 4.38275 3.84648 4.44509 3.84648 4.50654C3.84691 6.83702 3.84691 9.16795 3.84648 11.4984C3.84648 11.5375 3.84735 11.5769 3.84561 11.6159C3.8321 11.912 3.61867 12.1331 3.34775 12.1317C3.07421 12.1304 2.86209 11.9129 2.86035 11.6106C2.85556 10.7871 2.85817 9.96362 2.85817 9.13969C2.85948 8.76518 2.85948 8.38978 2.85948 8.01437Z" fill="#939CA3"/>
<path d="M6.57488 8.00495C6.57488 7.10299 6.57357 6.20103 6.57662 5.29951C6.57706 5.20039 6.5849 5.09544 6.61669 5.00304C6.68813 4.79538 6.89328 4.67114 7.10627 4.68729C7.32754 4.70388 7.50569 4.86221 7.54925 5.08961C7.56405 5.16585 7.5658 5.24524 7.5658 5.32328C7.56667 7.11017 7.56667 8.89705 7.56623 10.6839C7.56623 11.0813 7.38155 11.3213 7.07448 11.3249C6.76174 11.3284 6.57444 11.0858 6.57444 10.6772C6.57488 9.78645 6.57488 8.8957 6.57488 8.00495Z" fill="#939CA3"/>
<path d="M14.9988 8.13143C14.9988 8.73648 15.0001 9.34108 14.9983 9.94613C14.9975 10.1713 14.8903 10.3314 14.6908 10.4166C14.4957 10.5 14.3027 10.466 14.169 10.3036C14.0876 10.2049 14.0214 10.0565 14.0201 9.92998C14.0092 8.72033 14.0109 7.51024 14.0153 6.3006C14.0161 6.00682 14.2439 5.7857 14.5157 5.79019C14.7823 5.79467 14.9949 6.01086 14.9975 6.2997C15.0023 6.91058 14.9988 7.52101 14.9988 8.13143Z" fill="#939CA3"/>
<path d="M1.00047 7.99509C1.00047 7.45149 0.999599 6.90789 1.00091 6.36384C1.00178 6.02207 1.2017 5.78974 1.48831 5.79153C1.78275 5.79333 1.98573 6.01983 1.98616 6.35666C1.9879 7.45507 1.98747 8.55394 1.98616 9.65235C1.98573 9.98604 1.77753 10.2184 1.487 10.2157C1.2004 10.2134 1.00221 9.99008 1.00091 9.65907C0.999164 9.10471 1.00047 8.5499 1.00047 7.99509Z" fill="#939CA3"/>
</svg>
