<svg width="16" height="16" viewBox="0 0 16 16" fill="none" xmlns="http://www.w3.org/2000/svg">
<path d="M11.4553 5.86103C10.1421 5.86103 9.07391 4.79285 9.07391 3.47968C9.07391 2.16651 10.1421 1.09833 11.4553 1.09833C12.7684 1.09833 13.8366 2.16651 13.8366 3.47968C13.8366 4.79285 12.7684 5.86103 11.4553 5.86103ZM11.4553 1.82115C10.541 1.82115 9.79702 2.56509 9.79702 3.47939C9.79702 4.39369 10.541 5.13763 11.4553 5.13763C12.3696 5.13763 13.1135 4.39369 13.1135 3.47939C13.1135 2.56509 12.3696 1.82115 11.4553 1.82115Z" fill="#939CA3"/>
<path d="M11.4552 10.4126C10.5589 10.4126 9.66829 10.193 8.8801 9.77769C8.70337 9.68456 8.63568 9.46589 8.72882 9.28945C8.82196 9.11272 9.04063 9.04504 9.21706 9.13817C9.90171 9.49886 10.6757 9.68947 11.4552 9.68947C12.5842 9.68947 13.67 9.29523 14.5331 8.57559C14.3419 7.03971 13.0227 5.86075 11.4552 5.86075C10.8308 5.86075 10.2291 6.04528 9.71485 6.39469C9.5497 6.50692 9.32466 6.46382 9.21273 6.29866C9.1005 6.1335 9.1436 5.90876 9.30876 5.79653C9.94336 5.36556 10.6856 5.13763 11.4552 5.13763C12.4314 5.13763 13.3611 5.50555 14.0726 6.17342C14.7807 6.8381 15.2064 7.7365 15.2712 8.70286C15.2788 8.81364 15.2348 8.92182 15.1524 8.99587C14.136 9.90959 12.8231 10.4126 11.4552 10.4126Z" fill="#939CA3"/>
<path d="M4.54468 5.86103C3.23151 5.86103 2.16333 4.79285 2.16333 3.47968C2.16333 2.16651 3.23151 1.09833 4.54468 1.09833C5.85785 1.09833 6.92603 2.16651 6.92603 3.47968C6.92603 4.79285 5.85785 5.86103 4.54468 5.86103ZM4.54468 1.82115C3.63038 1.82115 2.88644 2.56509 2.88644 3.47939C2.88644 4.39369 3.63038 5.13763 4.54468 5.13763C5.45898 5.13763 6.20292 4.39369 6.20292 3.47939C6.20292 2.56509 5.45898 1.82115 4.54468 1.82115Z" fill="#939CA3"/>
<path d="M4.54462 10.4126C3.17678 10.4126 1.8639 9.9093 0.847787 8.99587C0.765064 8.92153 0.721388 8.81364 0.728619 8.70286C0.79341 7.7365 1.21918 6.83839 1.92725 6.17342C2.63879 5.50555 3.56813 5.13763 4.54462 5.13763C5.3143 5.13763 6.05679 5.36556 6.6911 5.79653C6.85626 5.90876 6.89936 6.1335 6.78713 6.29866C6.67491 6.46382 6.45016 6.50692 6.285 6.39469C5.77073 6.04557 5.1691 5.86075 4.54462 5.86075C2.97749 5.86075 1.65825 7.03971 1.46677 8.57559C2.32959 9.29523 3.4157 9.68947 4.54462 9.68947C5.32413 9.68947 6.09786 9.49886 6.78279 9.13817C6.95952 9.04504 7.17819 9.11272 7.27104 9.28945C7.36417 9.46618 7.29649 9.68485 7.11976 9.77769C6.33157 10.193 5.44128 10.4126 4.54462 10.4126Z" fill="#939CA3"/>
<path d="M7.99994 10.095C6.62429 10.095 5.50549 8.97588 5.50549 7.60052C5.50549 6.22517 6.62458 5.10608 7.99994 5.10608C9.37529 5.10608 10.4944 6.22517 10.4944 7.60052C10.4944 8.97588 9.37529 10.095 7.99994 10.095ZM7.99994 5.8289C7.02316 5.8289 6.2286 6.62346 6.2286 7.60023C6.2286 8.57701 7.02316 9.37157 7.99994 9.37157C8.97671 9.37157 9.77127 8.57701 9.77127 7.60023C9.77127 6.62346 8.97671 5.8289 7.99994 5.8289Z" fill="#939CA3"/>
<path d="M7.99995 14.9016C6.56067 14.9016 5.17895 14.372 4.10932 13.4106C4.0266 13.3362 3.98292 13.2284 3.99015 13.1176C4.05842 12.1023 4.50559 11.1585 5.24981 10.46C5.99722 9.75829 6.974 9.37186 7.99995 9.37186C9.0259 9.37186 10.0024 9.75829 10.7501 10.46C11.494 11.1585 11.9415 12.1023 12.0095 13.1176C12.017 13.2284 11.973 13.3365 11.8903 13.4106C10.821 14.372 9.43923 14.9016 7.99966 14.9016H7.99995ZM4.72831 12.9906C5.64463 13.758 6.7993 14.1785 7.99995 14.1785C9.2006 14.1785 10.3553 13.758 11.2716 12.9906C11.0732 11.3532 9.66889 10.095 7.99995 10.095C6.33101 10.095 4.92673 11.3532 4.72831 12.9906Z" fill="#939CA3"/>
</svg>
