<svg width="16" height="16" viewBox="0 0 16 16" fill="none" xmlns="http://www.w3.org/2000/svg">
<g clip-path="url(#clip0_3573_48)">
<path d="M14.9956 8.39489L14.3781 2.6314C14.326 2.14512 13.8698 1.78835 13.3789 1.88912C12.2816 2.11508 11.1299 2.37217 10.0238 2.45788C9.83037 2.4726 9.6465 2.54787 9.49827 2.67301C9.35005 2.79815 9.24502 2.9668 9.19808 3.15502C9.19542 3.16571 9.18926 3.1752 9.18058 3.18198C9.1719 3.18876 9.1612 3.19244 9.15018 3.19242H6.84843C6.82574 3.19242 6.80603 3.17703 6.80054 3.15508C6.75361 2.96685 6.64858 2.79818 6.50036 2.67303C6.35213 2.54788 6.16825 2.4726 5.97482 2.45788C4.55836 2.34811 2.83874 1.91578 2.56122 1.87928C2.08946 1.81736 1.67022 2.16738 1.62057 2.63137C0.957959 8.81555 1.00055 8.40555 1.00055 8.4415C1.00055 9.37294 2.51029 9.95438 3.41783 10.2525C3.71176 10.7811 4.06251 10.895 4.06251 11.5034C4.06251 11.8968 3.92661 12.0666 3.72094 12.3237C3.48337 12.6207 3.18767 12.9903 3.18767 13.6906C3.18767 13.9322 3.3835 14.128 3.62509 14.128C3.86669 14.128 4.06251 13.9322 4.06251 13.6906C4.06251 13.2972 4.19842 13.1273 4.40409 12.8702C4.64166 12.5733 4.93736 12.2036 4.93736 11.5034C4.93736 11.1271 4.8519 10.8463 4.73598 10.6209C5.34127 10.7639 5.96413 10.8789 6.54637 10.9561C6.63486 11.1021 6.68705 11.2599 6.68705 11.5035C6.68705 11.8968 6.55115 12.0667 6.34548 12.3238C6.1079 12.6207 5.81221 12.9904 5.81221 13.6906C5.81221 13.9322 6.00804 14.128 6.24963 14.128C6.49122 14.128 6.68705 13.9322 6.68705 13.6906C6.68705 13.2973 6.82295 13.1274 7.02863 12.8703C7.2662 12.5733 7.5619 12.2037 7.5619 11.5035C7.5619 11.3345 7.54457 11.185 7.51512 11.0509C7.97885 11.0778 8.44563 11.0745 9.18982 10.9887C9.26673 11.1259 9.31159 11.2779 9.31159 11.5035C9.31159 11.8968 9.17569 12.0667 8.97002 12.3238C8.73244 12.6207 8.43674 12.9904 8.43674 13.6906C8.43674 13.9322 8.63257 14.128 8.87417 14.128C9.11576 14.128 9.31159 13.9322 9.31159 13.6906C9.31159 13.2973 9.44749 13.1274 9.65316 12.8703C9.89074 12.5733 10.1864 12.2037 10.1864 11.5035C10.1864 11.2494 10.1474 11.0391 10.0865 10.8597C10.5612 10.7788 11.0326 10.6799 11.4998 10.5631C11.7567 10.8966 11.9361 11.0497 11.9361 11.5035C11.9361 11.8968 11.8002 12.0667 11.5946 12.3238C11.357 12.6207 11.0613 12.9904 11.0613 13.6906C11.0613 13.9322 11.2571 14.128 11.4987 14.128C11.7403 14.128 11.9361 13.9322 11.9361 13.6906C11.9361 13.2973 12.072 13.1274 12.2777 12.8703C12.5153 12.5733 12.811 12.2037 12.811 11.5035C12.811 10.9304 12.6129 10.5788 12.4108 10.3072C13.3399 10.0152 15.0992 9.36419 14.9956 8.39489ZM11.953 9.53252C11.9421 9.46791 11.9361 9.39697 11.9361 9.31624C11.9361 8.92294 12.072 8.75308 12.2777 8.49599C12.5153 8.19903 12.811 7.82941 12.811 7.1292C12.811 6.88761 12.6151 6.69178 12.3736 6.69178C12.132 6.69178 11.9361 6.88761 11.9361 7.1292C11.9361 7.52253 11.8002 7.69239 11.5946 7.94948C11.357 8.24644 11.0613 8.61606 11.0613 9.31624C11.0613 9.48109 11.0778 9.62744 11.106 9.75902C10.6005 9.87997 10.0812 9.98057 9.58769 10.0541C9.41922 9.83923 9.31159 9.66604 9.31159 9.31621C9.31159 8.92291 9.44747 8.75305 9.65314 8.49596C9.89074 8.199 10.1864 7.82938 10.1864 7.12918C10.1864 6.88758 9.99061 6.69175 9.74901 6.69175C9.50742 6.69175 9.31159 6.88758 9.31159 7.12918C9.31159 7.5225 9.17569 7.69236 8.97002 7.94945C8.73244 8.24641 8.43674 8.61603 8.43674 9.31621C8.43674 9.67419 8.51409 9.94561 8.62137 10.1652C8.10321 10.2047 7.67768 10.2023 7.02581 10.133C6.82172 9.87792 6.68705 9.70773 6.68705 9.31621C6.68705 8.92291 6.82293 8.75305 7.0286 8.49596C7.2662 8.199 7.5619 7.82938 7.5619 7.12918C7.5619 6.88758 7.36607 6.69175 7.12448 6.69175C6.88288 6.69175 6.68705 6.88758 6.68705 7.12918C6.68705 7.5225 6.55115 7.69236 6.34548 7.94945C6.1079 8.24641 5.81221 8.61603 5.81221 9.31621C5.81221 9.57634 5.85305 9.79076 5.91653 9.97286C5.316 9.86542 4.67816 9.71954 4.08132 9.5431C4.06924 9.47571 4.06251 9.40142 4.06251 9.31624C4.06251 8.92294 4.19839 8.75308 4.40406 8.49599C4.64166 8.19903 4.93736 7.82941 4.93736 7.1292C4.93736 6.88761 4.74153 6.69178 4.49994 6.69178C4.25834 6.69178 4.06251 6.88761 4.06251 7.1292C4.06251 7.52253 3.92661 7.69239 3.72094 7.94948C3.49179 8.23591 3.20869 8.59003 3.18887 9.24305C2.19163 8.85787 1.90413 8.53896 1.87712 8.44883L2.48716 2.75505C3.60379 2.98517 4.75561 3.2409 5.90729 3.3301C5.91767 3.33081 5.92755 3.33478 5.93555 3.34143C5.94354 3.34808 5.94924 3.35708 5.95183 3.36715C6.0016 3.56723 6.11694 3.74488 6.27945 3.87177C6.44196 3.99865 6.64228 4.06747 6.84846 4.06724H9.15021C9.3564 4.06747 9.55672 3.99864 9.71923 3.87174C9.88174 3.74485 9.99708 3.56718 10.0468 3.36709C10.0727 3.26378 9.93426 3.49187 13.5115 2.75503L14.1214 8.44741C14.0856 8.56332 13.6476 9.02726 11.953 9.53252Z" fill="#939CA3"/>
</g>
<defs>
<clipPath id="clip0_3573_48">
<rect width="14" height="14" fill="white" transform="translate(1 1)"/>
</clipPath>
</defs>
</svg>
