<svg width="16" height="16" viewBox="0 0 16 16" fill="none" xmlns="http://www.w3.org/2000/svg">
<path d="M7.99987 11.5396C7.03188 11.5396 6.24426 10.752 6.24426 9.78399C6.24426 8.816 7.03188 8.02838 7.99987 8.02838C8.96786 8.02838 9.75549 8.816 9.75549 9.78399C9.75549 10.752 8.96786 11.5396 7.99987 11.5396ZM7.99987 8.54373C7.31618 8.54373 6.75961 9.10001 6.75961 9.78399C6.75961 10.468 7.3159 11.0243 7.99987 11.0243C8.68385 11.0243 9.24014 10.468 9.24014 9.78399C9.24014 9.10001 8.68385 8.54373 7.99987 8.54373Z" fill="#939CA3">
<path d="M7.99989 14.9148C6.98838 14.9148 6.01724 14.5426 5.26541 13.867C5.20643 13.814 5.17522 13.737 5.18066 13.658C5.27972 12.1809 6.51827 11.024 7.99989 11.024C9.48151 11.024 10.7201 12.1809 10.8191 13.658C10.8246 13.737 10.7931 13.814 10.7344 13.867C9.98254 14.5426 9.0114 14.9148 7.99989 14.9148ZM5.7066 13.5675C6.34906 14.1049 7.15845 14.3995 7.99989 14.3995C8.84133 14.3995 9.65071 14.1049 10.2932 13.5675C10.1532 12.4206 9.16915 11.5396 7.99989 11.5396C6.83063 11.5396 5.8466 12.4206 5.7066 13.5675Z" fill="#939CA3">
<path d="M7.99987 4.59648C7.03188 4.59648 6.24426 3.80887 6.24426 2.84088C6.24426 1.87289 7.03188 1.08527 7.99987 1.08527C8.96786 1.08527 9.75549 1.87289 9.75549 2.84088C9.75549 3.80887 8.96786 4.59648 7.99987 4.59648ZM7.99987 1.6009C7.31618 1.6009 6.75961 2.15718 6.75961 2.84116C6.75961 3.52514 7.3159 4.08143 7.99987 4.08143C8.68385 4.08143 9.24014 3.52514 9.24014 2.84116C9.24014 2.15718 8.68385 1.6009 7.99987 1.6009Z" fill="#939CA3">
<path d="M9.12932 4.85759C9.09124 4.85759 9.0526 4.849 9.01595 4.83125C8.69844 4.6755 8.35659 4.59648 7.99986 4.59648C7.64313 4.59648 7.30156 4.6755 6.98405 4.83125C6.85608 4.89395 6.70205 4.84098 6.63935 4.71329C6.57665 4.5856 6.62961 4.431 6.7573 4.36858C7.1461 4.1779 7.56411 4.08142 7.99986 4.08142C8.43561 4.08142 8.8539 4.17819 9.2427 4.36887C9.37039 4.43157 9.42336 4.58589 9.36066 4.71358C9.31599 4.80491 9.22438 4.85787 9.12904 4.85787L9.12932 4.85759Z" fill="#939CA3">
<path d="M5.88665 7.48442C4.91866 7.48442 4.13104 6.69681 4.13104 5.72881C4.13104 4.76082 4.91866 3.97321 5.88665 3.97321C6.85464 3.97321 7.64226 4.76082 7.64226 5.72881C7.64226 6.69681 6.85464 7.48442 5.88665 7.48442ZM5.88665 4.48884C5.20296 4.48884 4.64639 5.04512 4.64639 5.7291C4.64639 6.41308 5.20267 6.96937 5.88665 6.96937C6.57063 6.96937 7.12692 6.41308 7.12692 5.7291C7.12692 5.04512 6.57063 4.48884 5.88665 4.48884Z" fill="#939CA3">
<path d="M7.95752 8.53313C7.87821 8.53313 7.80033 8.49677 7.74966 8.42806C7.31534 7.83713 6.61876 7.4844 5.88668 7.4844C5.37191 7.4844 4.88491 7.64988 4.47836 7.9631C4.36556 8.05014 4.2038 8.02895 4.11705 7.91615C4.0303 7.80334 4.0512 7.64158 4.164 7.55483C4.66159 7.17147 5.25739 6.96906 5.88697 6.96906C6.78253 6.96906 7.63428 7.40023 8.16508 8.12286C8.24926 8.23738 8.22463 8.39885 8.11011 8.48303C8.0643 8.51681 8.01077 8.53313 7.9578 8.53313H7.95752Z" fill="#939CA3">
<path d="M5.88667 10.8596C5.20842 10.8596 4.53647 10.6901 3.94353 10.3695C3.81842 10.3019 3.77175 10.1456 3.83932 10.0202C3.90689 9.89508 4.06321 9.84841 4.18861 9.91598C4.70653 10.196 5.29374 10.344 5.88667 10.344C6.14062 10.344 6.394 10.3174 6.63994 10.2647C6.77908 10.2346 6.91593 10.3234 6.94599 10.4625C6.97577 10.6017 6.8873 10.7385 6.74816 10.7686C6.46701 10.829 6.17698 10.8593 5.88696 10.8593L5.88667 10.8596Z" fill="#939CA3">
<path d="M10.1133 7.48442C9.14535 7.48442 8.35773 6.69681 8.35773 5.72881C8.35773 4.76082 9.14535 3.97321 10.1133 3.97321C11.0813 3.97321 11.8689 4.76082 11.8689 5.72881C11.8689 6.69681 11.0813 7.48442 10.1133 7.48442ZM10.1133 4.48884C9.42965 4.48884 8.87307 5.04512 8.87307 5.7291C8.87307 6.41308 9.42936 6.96937 10.1133 6.96937C10.7973 6.96937 11.3536 6.41308 11.3536 5.7291C11.3536 5.04512 10.7973 4.48884 10.1133 4.48884Z" fill="#939CA3">
<path d="M10.1134 10.8596C9.82335 10.8596 9.53361 10.829 9.25246 10.7689C9.11331 10.7391 9.02456 10.602 9.05462 10.4628C9.08439 10.3237 9.22154 10.2349 9.36068 10.265C9.60633 10.3177 9.8597 10.3443 10.1137 10.3443C10.7066 10.3443 11.2941 10.1963 11.812 9.91598C11.9371 9.84841 12.0934 9.89479 12.1613 10.0202C12.2291 10.1456 12.1825 10.3016 12.0571 10.3695C11.4641 10.6901 10.7919 10.8596 10.1137 10.8596H10.1134Z" fill="#939CA3">
<path d="M8.03451 8.54429C7.98212 8.54429 7.92887 8.52826 7.88334 8.49505C7.76825 8.41145 7.74277 8.25026 7.82637 8.13517C8.35689 7.40509 9.21208 6.96906 10.1134 6.96906C10.7429 6.96906 11.3384 7.17147 11.836 7.55483C11.9488 7.64158 11.9697 7.80334 11.883 7.91615C11.7962 8.02895 11.6345 8.04985 11.5217 7.9631C11.1151 7.64988 10.6281 7.4844 10.1134 7.4844C9.37613 7.4844 8.67698 7.84085 8.24323 8.43808C8.19284 8.50736 8.11439 8.54429 8.03451 8.54429Z" fill="#939CA3">
<path d="M12.5558 10.5442C11.6331 10.5442 10.8821 9.79348 10.8821 8.87044C10.8821 7.9474 11.6328 7.19672 12.5558 7.19672C13.4788 7.19672 14.2295 7.9474 14.2295 8.87044C14.2295 9.79348 13.4788 10.5442 12.5558 10.5442ZM12.5558 7.71206C11.9171 7.71206 11.3974 8.2317 11.3974 8.87044C11.3974 9.50918 11.9171 10.0288 12.5558 10.0288C13.1945 10.0288 13.7142 9.50918 13.7142 8.87044C13.7142 8.2317 13.1945 7.71206 12.5558 7.71206Z" fill="#939CA3">
<path d="M12.5558 13.735C11.6737 13.735 10.8102 13.431 10.1242 12.8793C10.0575 12.8257 10.0246 12.7458 10.0283 12.6665C9.93442 12.6193 9.87544 12.5174 9.88804 12.4071C10.0426 11.0515 11.1896 10.0291 12.5561 10.0291C13.9226 10.0291 15.1411 11.1285 15.2353 12.5323C15.2408 12.6113 15.2093 12.6883 15.1506 12.7413C14.4374 13.3823 13.5161 13.7356 12.5561 13.7356L12.5558 13.735ZM10.402 12.4484C10.4177 12.4564 10.4329 12.4661 10.4472 12.4776C11.0507 12.9629 11.7796 13.2197 12.5558 13.2197C13.332 13.2197 14.105 12.9442 14.7088 12.4412C14.574 11.3676 13.6515 10.5442 12.5558 10.5442C11.4601 10.5442 10.5342 11.3616 10.402 12.4484Z" fill="#939CA3">
<path d="M3.44424 10.5442C2.52148 10.5442 1.77051 9.79348 1.77051 8.87044C1.77051 7.9474 2.5212 7.19672 3.44424 7.19672C4.36728 7.19672 5.11796 7.9474 5.11796 8.87044C5.11796 9.51462 4.75837 10.091 4.17946 10.3744C3.94927 10.4872 3.70191 10.5442 3.44424 10.5442ZM3.44424 7.71206C2.8055 7.71206 2.28585 8.2317 2.28585 8.87044C2.28585 9.50918 2.8055 10.0288 3.44424 10.0288C3.62289 10.0288 3.79381 9.98931 3.95271 9.91144C4.35353 9.71532 4.60233 9.31622 4.60233 8.87044C4.60233 8.2317 4.08269 7.71206 3.44395 7.71206H3.44424Z" fill="#939CA3">
<path d="M3.44424 13.735C2.48426 13.735 1.56294 13.382 0.849762 12.7407C0.790783 12.6877 0.759574 12.6107 0.765014 12.5317C0.859207 11.1283 2.0362 10.0286 3.44424 10.0286C4.85228 10.0286 5.9574 11.051 6.11229 12.4066C6.12489 12.5171 6.06563 12.619 5.972 12.6663C5.97573 12.7456 5.9428 12.8255 5.87609 12.8793C5.19011 13.4313 4.32662 13.735 3.44452 13.735H3.44424ZM1.29124 12.4412C1.89505 12.944 2.65461 13.2197 3.44424 13.2197C4.23386 13.2197 4.94962 12.9632 5.55286 12.4776C5.56717 12.4661 5.58235 12.4564 5.59809 12.4484C5.46554 11.3616 4.5425 10.5442 3.44424 10.5442C2.34598 10.5442 1.42609 11.3679 1.29124 12.4412Z" fill="#939CA3">
<path d="M12.5558 4.92399C11.6331 4.92399 10.8821 4.17331 10.8821 3.25026C10.8821 2.32722 11.6328 1.57654 12.5558 1.57654C13.4788 1.57654 14.2295 2.32722 14.2295 3.25026C14.2295 4.17331 13.4788 4.92399 12.5558 4.92399ZM12.5558 2.09217C11.9171 2.09217 11.3974 2.61181 11.3974 3.25055C11.3974 3.88929 11.9171 4.40893 12.5558 4.40893C13.1945 4.40893 13.7142 3.88929 13.7142 3.25055C13.7142 2.61181 13.1945 2.09217 12.5558 2.09217Z" fill="#939CA3">
<path d="M13.4296 8.00889C13.3139 8.00889 13.2088 7.93044 13.1796 7.81306C13.1456 7.67506 13.2297 7.53534 13.3677 7.50099C13.8579 7.3796 14.3188 7.14569 14.7088 6.82102C14.5739 5.74767 13.6515 4.92398 12.5558 4.92398C12.1945 4.92398 11.8369 5.01445 11.5214 5.18594C11.3963 5.2538 11.2399 5.2077 11.1718 5.08259C11.1039 4.95747 11.15 4.80115 11.2752 4.73301C11.6657 4.52086 12.1086 4.40863 12.5555 4.40863C13.9635 4.40863 15.1405 5.50803 15.2347 6.91178C15.2402 6.9908 15.2087 7.06781 15.15 7.12049C14.6779 7.54479 14.1044 7.84942 13.4914 8.00116C13.4705 8.00631 13.4499 8.00889 13.4293 8.00889H13.4296Z" fill="#939CA3">
<path d="M3.44424 4.92399C2.52148 4.92399 1.77051 4.17331 1.77051 3.25026C1.77051 2.32722 2.5212 1.57654 3.44424 1.57654C4.36728 1.57654 5.11796 2.32722 5.11796 3.25026C5.11796 4.17331 4.36728 4.92399 3.44424 4.92399ZM3.44424 2.09217C2.8055 2.09217 2.28585 2.61181 2.28585 3.25055C2.28585 3.88929 2.8055 4.40893 3.44424 4.40893C4.08298 4.40893 4.60262 3.88929 4.60262 3.25055C4.60262 2.61181 4.08298 2.09217 3.44424 2.09217Z" fill="#939CA3">
<path d="M2.57128 8.00922C2.55095 8.00922 2.53005 8.00664 2.50915 8.00149C1.89561 7.84975 1.32186 7.54512 0.849456 7.12053C0.790478 7.06757 0.759269 6.99055 0.764708 6.91153C0.858902 5.50779 2.0359 4.40839 3.44393 4.40839C3.89085 4.40839 4.33376 4.52062 4.72428 4.73277C4.84939 4.80062 4.89577 4.95723 4.82763 5.08206C4.75978 5.20717 4.60317 5.25355 4.47806 5.18541C4.16284 5.0142 3.80525 4.92344 3.44365 4.92344C2.34797 4.92344 1.4255 5.74714 1.29065 6.82049C1.68088 7.14516 2.14211 7.37935 2.63255 7.50046C2.77083 7.53453 2.85501 7.67424 2.82094 7.81253C2.79202 7.92991 2.68666 8.00836 2.571 8.00836L2.57128 8.00922Z" fill="#939CA3">
</svg>
