<svg width="16" height="16" viewBox="0 0 16 16" fill="none" xmlns="http://www.w3.org/2000/svg">
<path d="M7.8187 8.09828C7.8187 7.79031 7.74429 7.6851 7.59914 7.6851C7.46647 7.6851 7.3786 7.78368 7.3786 8.09344C7.3786 8.37798 7.45938 8.50281 7.60183 8.50281C7.74331 8.50255 7.8187 8.37595 7.8187 8.09828Z" fill="#939CA3"/>
<path d="M10.2477 7.91234C10.2566 7.76408 10.3116 7.6548 10.4541 7.6548C10.6068 7.6548 10.6453 7.77274 10.6472 7.91234H10.2477Z" fill="#939CA3"/>
<path fill-rule="evenodd" clip-rule="evenodd" d="M11.1833 3.56904C11.1831 3.63527 11.1909 3.67247 11.2829 3.68571C12.1749 3.81359 12.8015 4.48482 12.8015 5.30253C12.8013 5.90134 12.8014 6.50004 12.8014 7.0987L12.8015 7.99664L12.8007 8.78536C12.801 9.41658 12.8012 10.0478 12.8 10.679C12.7983 11.5209 12.2096 12.1596 11.2913 12.3142C11.2034 12.329 11.1816 12.3608 11.1826 12.4377C11.187 12.8158 11.1872 13.194 11.1838 13.5721C11.1814 13.8227 11.0105 13.9896 10.7606 13.996C10.5021 14.0026 10.3119 13.8334 10.3097 13.5863C10.3065 13.2083 10.3063 12.83 10.3109 12.452C10.3119 12.3621 10.2884 12.3295 10.1817 12.333C9.94672 12.3409 9.71076 12.3399 9.47554 12.3335C9.37836 12.331 9.34923 12.3549 9.3507 12.4449C9.35658 12.8229 9.35535 13.2012 9.35242 13.5792C9.35046 13.8067 9.19723 13.9702 8.97449 13.9929C8.6974 14.0212 8.48396 13.851 8.48103 13.5907C8.47686 13.2167 8.4754 12.8423 8.48298 12.4683C8.48519 12.3595 8.45141 12.3284 8.33171 12.333C8.1053 12.3419 7.87815 12.3419 7.65174 12.333C7.53498 12.3284 7.51809 12.3692 7.51931 12.4612C7.52445 12.8392 7.52274 13.2175 7.52103 13.5955C7.52029 13.754 7.44588 13.8788 7.288 13.9524C7.14163 14.0207 6.99134 14.0156 6.85158 13.9366C6.7008 13.8513 6.64695 13.7191 6.64768 13.5629C6.64821 13.4283 6.64797 13.2937 6.64773 13.1591C6.6473 12.9235 6.64688 12.6878 6.65062 12.4522C6.65209 12.3598 6.62516 12.3305 6.52064 12.3335C6.28101 12.3407 6.04089 12.3391 5.80126 12.3341C5.71461 12.332 5.68989 12.3565 5.69062 12.4331C5.69429 12.8191 5.69356 13.2053 5.69184 13.5912C5.69111 13.7545 5.61401 13.8831 5.45025 13.9557C5.2936 14.025 5.13646 14.013 4.99326 13.9188C4.85741 13.8294 4.81605 13.7007 4.81629 13.5558C4.81652 13.4401 4.81627 13.3244 4.81603 13.2088C4.81548 12.9542 4.81493 12.6996 4.81947 12.4451C4.82094 12.3534 4.78521 12.3264 4.69195 12.3119C3.81517 12.1761 3.20275 11.5151 3.20153 10.6981C3.20047 10.0054 3.20085 9.31257 3.20122 8.61976C3.2018 7.54407 3.20238 6.46833 3.19761 5.39271C3.19517 4.84732 3.38633 4.39032 3.85091 4.03547C4.0925 3.85078 4.37228 3.73182 4.68412 3.69106C4.80308 3.67552 4.81972 3.63349 4.8185 3.54077C4.8136 3.17445 4.81482 2.80814 4.81703 2.44183C4.8185 2.18786 4.982 2.01514 5.22531 2.00445C5.49725 1.99247 5.69062 2.16391 5.69209 2.42349C5.69429 2.7977 5.69576 3.17191 5.69013 3.54612C5.68866 3.63833 5.71559 3.66737 5.81986 3.66431C6.05949 3.65718 6.29961 3.65897 6.53925 3.66355C6.62394 3.66508 6.65086 3.64292 6.64988 3.5642C6.64548 3.18617 6.64646 2.80789 6.64841 2.42986C6.64964 2.17741 6.82759 2.00495 7.08191 2.00394C7.33427 2.00292 7.51883 2.17155 7.52054 2.41203C7.52299 2.79006 7.52445 3.16834 7.51883 3.54637C7.51736 3.63986 7.54722 3.66661 7.64978 3.66381C7.885 3.65693 8.12072 3.65769 8.35595 3.66355C8.45165 3.6661 8.48274 3.64394 8.48151 3.55325C8.47588 3.1714 8.47588 2.78929 8.48029 2.40719C8.48372 2.09819 8.81832 1.90815 9.11205 2.0452C9.28584 2.12621 9.35339 2.26326 9.3529 2.43444C9.35267 2.55363 9.35291 2.67284 9.35316 2.79206C9.35368 3.04307 9.35419 3.29416 9.35021 3.5451C9.34874 3.63757 9.37542 3.66686 9.47994 3.66381C9.71517 3.65667 9.95088 3.65718 10.1861 3.66355C10.283 3.6661 10.3117 3.6419 10.3105 3.55248C10.3048 3.17063 10.3056 2.78853 10.3087 2.40642C10.3105 2.20518 10.4497 2.04953 10.6502 2.01081C10.845 1.97311 11.0445 2.05743 11.1346 2.2169C11.1794 2.29637 11.1843 2.38299 11.1843 2.47011L11.1844 2.81719C11.1845 3.0678 11.1847 3.31842 11.1833 3.56904ZM6.56886 4.20054C6.30377 4.20436 6.0382 4.20461 5.77311 4.20054C5.68691 4.19927 5.68936 4.24187 5.69184 4.28488C5.69236 4.29391 5.69288 4.30295 5.69258 4.3116L5.69183 4.32751C5.68918 4.37604 5.68661 4.42324 5.77751 4.4191C5.87053 4.41492 5.9638 4.41593 6.05705 4.41694C6.09434 4.41735 6.13164 4.41776 6.16891 4.41783C6.20804 4.41783 6.24719 4.41742 6.28635 4.417C6.37773 4.41604 6.46914 4.41508 6.5603 4.41936C6.65596 4.42384 6.65184 4.37214 6.6475 4.3175L6.64719 4.31364C6.64644 4.30361 6.64716 4.29291 6.64787 4.28223C6.65067 4.24056 6.65343 4.19932 6.56886 4.20054ZM4.71918 11.7736C4.75715 11.7903 4.80583 11.8117 4.81017 11.7438C4.81105 11.7303 4.8144 11.7155 4.81784 11.7003C4.83067 11.6437 4.8449 11.5809 4.73797 11.55C4.27706 11.4178 4.03106 11.1042 4.03106 10.6637L4.03142 7.71753C4.03127 6.92365 4.03111 6.12978 4.0318 5.3359C4.03204 4.89546 4.27412 4.58315 4.72769 4.45553C4.84786 4.42177 4.83081 4.34978 4.81635 4.28875C4.81379 4.27793 4.81131 4.26745 4.80968 4.2576C4.79995 4.19781 4.74791 4.21623 4.704 4.23177C4.69272 4.23576 4.68197 4.23957 4.67261 4.2418C4.14635 4.36917 3.79461 4.79025 3.7929 5.3033C3.79071 5.92048 3.79107 6.53779 3.79143 7.15505C3.79159 7.43558 3.79175 7.71614 3.79168 7.99664C3.79168 8.26592 3.79141 8.53523 3.79115 8.80455C3.79053 9.43298 3.78991 10.0616 3.79265 10.69C3.79486 11.2165 4.16202 11.6521 4.68975 11.7624C4.69768 11.7641 4.70796 11.7686 4.71918 11.7736ZM6.64813 11.7079C6.6482 11.7005 6.64828 11.6929 6.64866 11.6852C6.65209 11.6177 6.64425 11.5729 6.5461 11.5793C6.46193 11.5848 6.37729 11.5835 6.29258 11.5822C6.2556 11.5816 6.2186 11.581 6.18163 11.581C6.14256 11.581 6.10345 11.5816 6.06434 11.5821C5.97311 11.5834 5.88184 11.5847 5.79122 11.579C5.68891 11.5724 5.68964 11.6241 5.6916 11.6873C5.69179 11.6939 5.69179 11.7005 5.69179 11.707C5.69176 11.7579 5.69173 11.8021 5.78657 11.7996C6.0426 11.793 6.29888 11.794 6.55491 11.7994C6.64719 11.8011 6.64762 11.7581 6.64813 11.7079ZM4.86304 7.87232C4.86304 8.44192 5.16142 8.87573 5.77898 8.87573C6.29643 8.87573 6.58575 8.60393 6.65502 8.1938H6.1038C6.0803 8.30461 6.01886 8.4707 5.79905 8.4707C5.509 8.4707 5.43263 8.16323 5.43263 7.8522C5.43263 7.50958 5.52442 7.24414 5.79293 7.24414C5.99708 7.24414 6.07565 7.37329 6.10086 7.51518H6.64915C6.61219 7.17536 6.35983 6.84013 5.80566 6.84013C5.158 6.84013 4.86304 7.31674 4.86304 7.87232ZM7.61086 7.3091C7.09586 7.3091 6.83248 7.64535 6.83248 8.09598C6.83248 8.52776 7.08484 8.87548 7.59348 8.87523C8.08645 8.87523 8.36574 8.55655 8.36574 8.09038C8.36574 7.63797 8.08425 7.3091 7.61086 7.3091ZM7.61037 11.7988C7.8713 11.7935 8.13222 11.794 8.39315 11.7986C8.48332 11.8002 8.4813 11.7545 8.47916 11.7058L8.47858 11.6901C8.47838 11.6819 8.47881 11.6733 8.47924 11.6648C8.48147 11.6202 8.4837 11.5758 8.39658 11.5793C8.30542 11.5828 8.21403 11.582 8.12265 11.5812C8.08349 11.5809 8.04433 11.5805 8.00519 11.5805C7.96566 11.5805 7.92609 11.581 7.88652 11.5815C7.79549 11.5825 7.70438 11.5836 7.6138 11.579C7.52005 11.5744 7.51711 11.6213 7.52127 11.6814C7.52197 11.6913 7.52173 11.7015 7.52148 11.7115C7.52036 11.7576 7.51932 11.8007 7.61037 11.7988ZM8.1138 4.41673C8.20233 4.41544 8.29088 4.41416 8.37895 4.41987C8.47907 4.42623 8.48323 4.37834 8.47956 4.31288C8.47914 4.30458 8.47915 4.29628 8.47917 4.28816C8.47926 4.23946 8.47933 4.19715 8.38556 4.19977C8.1288 4.20691 7.87154 4.20691 7.61478 4.19977C7.52087 4.19715 7.5209 4.23937 7.52094 4.28811C7.52095 4.29616 7.52095 4.3044 7.52054 4.31262C7.51711 4.37809 7.52103 4.42623 7.62114 4.41987C7.70921 4.41416 7.79777 4.41544 7.88629 4.41673C7.92423 4.41728 7.96216 4.41783 8.00005 4.41783C8.03793 4.41783 8.07587 4.41728 8.1138 4.41673ZM9.71917 4.20297C9.62754 4.20404 9.53587 4.20511 9.44469 4.20028C9.35021 4.19519 9.34776 4.2413 9.35266 4.30218C9.35349 4.31257 9.35316 4.32333 9.35283 4.33394C9.35142 4.37926 9.35009 4.42172 9.44053 4.41987C9.70146 4.41477 9.96239 4.41503 10.2233 4.41987C10.314 4.42147 10.3115 4.37611 10.3088 4.32824L10.308 4.31211C10.3077 4.30343 10.3082 4.29431 10.3087 4.28519C10.3112 4.2416 10.3137 4.19789 10.2275 4.20105C10.1371 4.20441 10.0465 4.20359 9.95596 4.20278C9.916 4.20242 9.87602 4.20207 9.83608 4.20207C9.79715 4.20207 9.75815 4.20252 9.71917 4.20297ZM9.13726 8.83905V8.22539C9.13726 7.87538 9.2736 7.80354 9.57589 7.81679V7.3091C9.32916 7.31114 9.18989 7.44462 9.13457 7.58804C9.13457 7.52257 9.12796 7.39163 9.12159 7.34527H8.59974C8.60243 7.47799 8.60341 7.63109 8.60341 7.77399V8.83905H9.13726ZM9.95136 11.7966C10.0423 11.7957 10.1333 11.7949 10.224 11.7986C10.3127 11.8022 10.3105 11.7562 10.3082 11.7096C10.3079 11.703 10.3076 11.6963 10.3075 11.6898C10.3074 11.6823 10.3078 11.6746 10.3082 11.6668C10.3104 11.6219 10.3126 11.578 10.225 11.5795C9.96459 11.5838 9.70415 11.5841 9.44372 11.5793C9.34972 11.5775 9.34948 11.6233 9.35242 11.6827C9.35288 11.6917 9.35272 11.7009 9.35257 11.71C9.35174 11.7581 9.35096 11.8031 9.44274 11.7988C9.53144 11.7947 9.62038 11.7956 9.70931 11.7965C9.7506 11.797 9.79212 11.7974 9.83339 11.7973C9.8727 11.7973 9.91203 11.7969 9.95136 11.7966ZM9.70489 8.10515C9.70489 8.49567 9.90438 8.87548 10.4463 8.87548C10.9542 8.87548 11.1172 8.56776 11.1696 8.36906H10.6453C10.6184 8.44752 10.5822 8.50356 10.4556 8.50356C10.2982 8.50356 10.2427 8.35276 10.2427 8.20221H11.1767C11.1811 8.16145 11.1821 8.124 11.1821 8.07382C11.1821 7.70114 11.0122 7.30935 10.4561 7.30935C9.93375 7.30935 9.70489 7.65503 9.70489 8.10515ZM11.3747 11.7476C11.8863 11.5984 12.2067 11.1921 12.2082 10.6772C12.2104 9.99003 12.2098 9.30267 12.2092 8.61539L12.2087 7.99689C12.2087 7.73638 12.2088 7.47585 12.209 7.21531C12.2095 6.57832 12.2099 5.94123 12.2077 5.30431C12.206 4.78924 11.8459 4.36433 11.3145 4.23875C11.3066 4.23687 11.2985 4.23437 11.2902 4.23182C11.257 4.22156 11.2217 4.21069 11.1929 4.23824C11.1422 4.28689 11.1995 4.43184 11.2749 4.45451C11.714 4.58697 11.9673 4.89597 11.9678 5.31552C11.9698 7.10658 11.9705 8.89764 11.9685 10.6887C11.9681 11.107 11.7086 11.4292 11.2731 11.5461C11.1527 11.5784 11.1692 11.6478 11.1835 11.7082C11.1865 11.7207 11.1893 11.7328 11.1909 11.7441C11.1984 11.7984 11.2333 11.7857 11.2696 11.7725C11.2891 11.7654 11.309 11.7582 11.3253 11.7611C11.3354 11.7631 11.347 11.7583 11.3586 11.7536C11.364 11.7514 11.3694 11.7492 11.3747 11.7476Z" fill="#939CA3"/>
<path d="M1.43939 5.91004C1.57495 5.91181 1.71051 5.91137 1.84608 5.91094C1.90626 5.91074 1.96666 5.91055 2.02684 5.91055C2.08405 5.91055 2.14126 5.91034 2.19847 5.91014C2.34147 5.90962 2.48443 5.9091 2.62727 5.91182C2.70559 5.91335 2.74451 5.9024 2.74157 5.81757C2.73423 5.61735 2.73521 5.41662 2.74133 5.21639C2.74353 5.14023 2.71318 5.1252 2.63632 5.12571C2.43973 5.12721 2.24309 5.12699 2.04644 5.12677C1.84279 5.12654 1.63906 5.12631 1.43547 5.128C1.18947 5.13004 1.00222 5.30148 1.00002 5.51596C0.997816 5.73758 1.18409 5.90648 1.43939 5.91004Z" fill="#939CA3"/>
<path d="M13.7914 5.91041C13.8494 5.91064 13.9074 5.91088 13.9653 5.91088H14.5657C14.8142 5.90477 14.9965 5.74224 15.0002 5.52419C15.0039 5.30587 14.813 5.13036 14.5606 5.12832C14.3703 5.12687 14.18 5.12708 13.9897 5.1273C13.7797 5.12754 13.5697 5.12778 13.3597 5.12577C13.276 5.12501 13.2582 5.15125 13.2596 5.22079C13.2643 5.42102 13.2653 5.62175 13.2594 5.82197C13.2572 5.89814 13.2883 5.91368 13.3649 5.91215C13.507 5.90926 13.6492 5.90983 13.7914 5.91041Z" fill="#939CA3"/>
<path d="M2.20578 6.78015C2.34874 6.78067 2.49179 6.78119 2.63458 6.77846C2.70973 6.77694 2.74326 6.79044 2.74131 6.86762C2.73543 7.07192 2.73641 7.27648 2.74106 7.48078C2.74253 7.55057 2.71365 7.56662 2.64266 7.56611C2.47021 7.56514 2.29771 7.56536 2.1252 7.56559C1.89298 7.56589 1.66074 7.5662 1.42859 7.56357C1.18088 7.56076 1.00195 7.39009 1.00195 7.17076C1.00171 6.95602 1.18602 6.78636 1.43373 6.78076C1.57284 6.77757 1.71206 6.77832 1.85132 6.77908C1.91226 6.77941 1.97321 6.77974 2.03416 6.77974C2.09137 6.77974 2.14858 6.77995 2.20578 6.78015Z" fill="#939CA3"/>
<path d="M14.0396 7.56521C14.2042 7.56534 14.369 7.56547 14.5336 7.56482C14.8111 7.56355 14.9986 7.40281 14.9986 7.17024C14.9986 6.94378 14.8038 6.78177 14.5267 6.77998C14.3973 6.7791 14.2677 6.77932 14.1382 6.77954L13.9654 6.77973C13.9082 6.77973 13.851 6.77994 13.7938 6.78014C13.6508 6.78066 13.5078 6.78118 13.365 6.77845C13.2886 6.77693 13.257 6.79221 13.2595 6.86889C13.2654 7.06911 13.2659 7.26984 13.2592 7.47006C13.2565 7.55183 13.2908 7.56737 13.3718 7.56661C13.5944 7.56485 13.817 7.56503 14.0396 7.56521Z" fill="#939CA3"/>
<path d="M2.63435 8.43223C2.72467 8.43147 2.74278 8.46077 2.74083 8.53439C2.73593 8.72672 2.73299 8.91955 2.74205 9.11188C2.74646 9.20639 2.70754 9.22193 2.61526 9.21938C2.47316 9.2154 2.33082 9.21618 2.1884 9.21697C2.13065 9.21728 2.07284 9.2176 2.01508 9.2176L1.84278 9.21788C1.7088 9.2182 1.57482 9.21852 1.44084 9.21709C1.18701 9.21429 0.99927 9.0454 1.00049 8.82403C1.00172 8.60979 1.1897 8.43682 1.43374 8.43504C1.61845 8.43363 1.80316 8.43384 1.98787 8.43406C2.20336 8.43431 2.41886 8.43457 2.63435 8.43223Z" fill="#939CA3"/>
<path d="M14.5734 8.43529C14.3711 8.43338 14.1688 8.43364 13.9665 8.43389C13.7643 8.43415 13.562 8.4344 13.3598 8.43249C13.2751 8.43173 13.2582 8.45924 13.2597 8.52827C13.2639 8.72467 13.2663 8.92132 13.259 9.11772C13.2558 9.20484 13.292 9.22165 13.3784 9.21936C13.52 9.21575 13.6618 9.21649 13.8035 9.21722C13.8618 9.21753 13.9203 9.21783 13.9786 9.21783H14.5658C14.8123 9.21274 14.9963 9.04818 14.9995 8.83064C15.0027 8.6159 14.8157 8.43758 14.5734 8.43529Z" fill="#939CA3"/>
<path d="M2.64242 10.0857C2.71341 10.0855 2.74253 10.1005 2.74082 10.1705C2.73617 10.3748 2.73519 10.5794 2.74131 10.7837C2.74351 10.8611 2.71022 10.8744 2.63508 10.8731C2.48892 10.8704 2.34288 10.8709 2.19679 10.8714C2.13835 10.8716 2.0799 10.8718 2.02143 10.8718L1.84913 10.8721C1.71506 10.8724 1.58095 10.8727 1.44695 10.8713C1.1919 10.8685 1.00098 10.7006 1.00049 10.4826C1 10.2617 1.18603 10.0905 1.44132 10.088C1.65911 10.0859 1.87682 10.0862 2.09453 10.0864C2.27714 10.0867 2.45976 10.0869 2.64242 10.0857Z" fill="#939CA3"/>
<path d="M14.553 10.0878C14.3702 10.0864 14.1875 10.0866 14.0047 10.0868C13.7915 10.087 13.5783 10.0873 13.3651 10.085C13.2738 10.0839 13.2579 10.115 13.2596 10.1876C13.2643 10.384 13.266 10.5807 13.2591 10.7771C13.2562 10.8588 13.2895 10.8751 13.371 10.8731C13.5138 10.8698 13.6568 10.8704 13.7998 10.8711C13.8568 10.8713 13.9144 10.8716 13.9714 10.8716L14.1509 10.8718C14.2826 10.8721 14.4143 10.8724 14.5459 10.8713C14.8103 10.869 15.0002 10.7022 14.998 10.477C14.9961 10.2559 14.8108 10.0898 14.553 10.0878Z" fill="#939CA3"/>
</svg>
