<svg width="16" height="16" viewBox="0 0 16 16" fill="none" xmlns="http://www.w3.org/2000/svg">
<g clip-path="url(#clip0_5444_25)">
<rect x="0.5" y="0.5" width="15" height="15" rx="7.5" stroke="#9CA3AF"/>
<path d="M6.79927 5.12995C6.86028 5.12995 6.9145 5.10844 6.96195 5.06543C7.0094 5.02241 7.02974 4.96864 7.02296 4.90411C7.01618 4.83959 6.99584 4.78212 6.96195 4.73171C6.92806 4.6813 6.87383 4.65979 6.79927 4.66718C6.72471 4.67458 6.67387 4.69609 6.64676 4.73171C6.61964 4.76733 6.59931 4.8248 6.58575 4.90411C6.57219 4.98343 6.59253 5.0372 6.64676 5.06543C6.70098 5.09366 6.75182 5.11517 6.79927 5.12995ZM9.20105 5.12995C9.26205 5.12995 9.31289 5.10844 9.35356 5.06543C9.39423 5.02241 9.41457 4.96864 9.41457 4.90411C9.41457 4.83959 9.39423 4.78212 9.35356 4.73171C9.31289 4.6813 9.26205 4.65979 9.20105 4.66718C9.14004 4.67458 9.08582 4.69609 9.03837 4.73171C8.99092 4.76733 8.97058 4.8248 8.97736 4.90411C8.98414 4.98343 9.00448 5.0372 9.03837 5.06543C9.07226 5.09366 9.12649 5.11517 9.20105 5.12995ZM4.59067 6.23865C4.74679 6.23865 4.88246 6.29971 4.9977 6.42181C5.11293 6.54392 5.16716 6.68742 5.16038 6.85232V9.43604C5.16038 9.60833 5.10605 9.75542 4.99738 9.8773C4.88871 9.99918 4.75304 10.0602 4.59036 10.0605C4.42767 10.0607 4.28861 9.99963 4.17317 9.8773C4.05772 9.75497 4 9.60788 4 9.43604V6.85232C4 6.6872 4.05772 6.54369 4.17317 6.42181C4.28861 6.29993 4.42767 6.23888 4.59036 6.23865H4.59067ZM10.6054 6.35729V10.3512C10.6054 10.5378 10.5443 10.6956 10.4221 10.8247C10.2999 10.9537 10.154 11.0184 9.98459 11.0186H9.55723V12.3857C9.55723 12.558 9.50301 12.7015 9.39455 12.8162C9.2861 12.931 9.14703 12.992 8.97736 12.9994C8.80769 13.0068 8.66863 12.9457 8.56017 12.8162C8.45172 12.6867 8.394 12.5432 8.387 12.3857V11.0186H7.60346V12.3857C7.60346 12.558 7.54924 12.7015 7.44078 12.8162C7.33233 12.931 7.19326 12.992 7.02359 12.9994C6.8607 12.9994 6.72502 12.9383 6.61657 12.8162C6.50812 12.6941 6.45039 12.5506 6.4434 12.3857L6.43324 11.0186H6.01605C5.8396 11.0186 5.69375 10.954 5.57852 10.8247C5.46329 10.6954 5.40218 10.5376 5.39519 10.3512V6.35729H10.6061H10.6054ZM9.29256 3.92447C9.69291 4.13978 10.0152 4.44482 10.2594 4.83959C10.5037 5.23436 10.6258 5.66856 10.6258 6.1422H5.37422C5.37422 5.66856 5.49294 5.23436 5.7304 4.83959C5.96786 4.44482 6.29354 4.13978 6.70744 3.92447L6.31059 3.13873C6.28348 3.08137 6.29025 3.03836 6.33092 3.00968C6.38515 2.98817 6.42582 3.00251 6.45294 3.0527L6.85996 3.84919C7.21964 3.67689 7.59965 3.59075 8 3.59075C8.40035 3.59075 8.78036 3.67689 9.14004 3.84919L9.54707 3.0527C9.57418 3.00251 9.61146 2.98817 9.65891 3.00968C9.70636 3.03836 9.71653 3.08137 9.68941 3.13873L9.29256 3.92447ZM12 6.85232V9.43604C12 9.60833 11.9423 9.75542 11.8268 9.8773C11.7114 9.99918 11.5723 10.0602 11.4096 10.0605C11.2535 10.0605 11.1179 9.9994 11.0026 9.8773C10.8874 9.75519 10.8297 9.60811 10.8295 9.43604V6.85232C10.8295 6.68003 10.8872 6.53652 11.0026 6.42181C11.1181 6.3071 11.2537 6.24605 11.4096 6.23865C11.5725 6.23865 11.7116 6.29971 11.8268 6.42181C11.9421 6.54392 11.9998 6.68742 12 6.85232Z" fill="#9CA3AF"/>
</g>
<defs>
<clipPath id="clip0_5444_25">
<rect width="16" height="16" fill="white"/>
</clipPath>
</defs>
</svg>
