<svg width="16" height="16" viewBox="0 0 16 16" fill="none" xmlns="http://www.w3.org/2000/svg">
<path d="M1.01436 11.0847C1.02946 11.3013 1.17048 11.4121 1.38704 11.407C2.59573 11.3869 3.61305 10.8178 4.50447 9.78535C5.44122 10.7171 6.52399 11.2811 7.66221 11.538L7.48592 12.9834C7.44058 13.3611 7.64708 13.5776 8.08522 13.5021C9.33423 13.3107 10.7444 12.3891 11.4797 11.3265C13.3129 10.7523 15 9.60911 15 8.21909C15 6.88448 13.4388 5.77651 11.6811 5.1772C11.0566 3.03176 8.21617 2.03962 6.21177 3.15263C5.99517 3.26343 5.97003 3.4397 6.14628 3.6764C6.6096 4.28579 6.7607 4.64839 6.85134 5.14195C6.00527 5.45419 5.21961 5.94774 4.50447 6.66289C3.61305 5.62543 2.59573 5.05633 1.38704 5.03618C1.17048 5.03115 1.02946 5.14195 1.01436 5.3585C0.908595 6.41611 1.39711 7.54927 2.15254 8.21909C1.39711 8.89394 0.908595 10.0321 1.01436 11.0847ZM12.3107 8.52629C12.0236 8.52629 11.7818 8.28455 11.7818 7.99751C11.7818 7.71043 12.0236 7.46869 12.3107 7.46869C12.6027 7.46869 12.8445 7.71043 12.8445 7.99751C12.8445 8.28455 12.6027 8.52629 12.3107 8.52629Z" fill="#939CA3"/>
</svg>
