<svg width="17" height="16" viewBox="0 0 17 16" fill="none" xmlns="http://www.w3.org/2000/svg">
<path d="M11.7507 2.69376C11.5665 2.06654 10.9909 1.63574 10.3372 1.63574H9.90718C9.19613 1.63574 8.58655 2.14363 8.45822 2.84299L7.72168 6.85652L7.90445 6.23116C8.08806 5.60304 8.664 5.1713 9.31844 5.1713H11.8175L12.8656 5.57958L13.8759 5.1713H13.5811C12.9273 5.1713 12.3518 4.74049 12.1676 4.11328L11.7507 2.69376Z" fill="url(#paint0_radial_2955_63)"/>
<path d="M5.44697 13.2999C5.62914 13.9301 6.20613 14.3639 6.8622 14.3639H7.77553C8.5744 14.3639 9.22767 13.7272 9.24819 12.9286L9.34766 9.05859L9.13959 9.76917C8.95577 10.397 8.37995 10.8284 7.72579 10.8284H5.20593L4.30755 10.341L3.33496 10.8284H3.62492C4.28095 10.8284 4.85795 11.2622 5.04012 11.8924L5.44697 13.2999Z" fill="url(#paint1_radial_2955_63)"/>
<path d="M10.2737 1.63574H5.17002C3.7118 1.63574 2.83688 3.56296 2.2536 5.49017C1.56256 7.77339 0.658323 10.827 3.27434 10.827H5.4781C6.13665 10.827 6.71479 10.3916 6.89578 9.75842C7.27892 8.41797 7.95039 6.07957 8.47784 4.29946C8.74586 3.39485 8.96911 2.61794 9.31178 2.13413C9.50388 1.86289 9.82402 1.63574 10.2737 1.63574Z" fill="url(#paint2_linear_2955_63)"/>
<path d="M10.2737 1.63574H5.17002C3.7118 1.63574 2.83688 3.56296 2.2536 5.49017C1.56256 7.77339 0.658323 10.827 3.27434 10.827H5.4781C6.13665 10.827 6.71479 10.3916 6.89578 9.75842C7.27892 8.41797 7.95039 6.07957 8.47784 4.29946C8.74586 3.39485 8.96911 2.61794 9.31178 2.13413C9.50388 1.86289 9.82402 1.63574 10.2737 1.63574Z" fill="url(#paint3_linear_2955_63)"/>
<path d="M6.77344 14.3638H11.8772C13.3354 14.3638 14.2103 12.4362 14.7936 10.5087C15.4846 8.22508 16.3889 5.1709 13.7728 5.1709H11.5691C10.9106 5.1709 10.3324 5.60639 10.1515 6.23961C9.76828 7.58028 9.09681 9.91915 8.56936 11.6996C8.30131 12.6044 8.07806 13.3814 7.73542 13.8653C7.54332 14.1366 7.22315 14.3638 6.77344 14.3638Z" fill="url(#paint4_radial_2955_63)"/>
<path d="M6.77344 14.3638H11.8772C13.3354 14.3638 14.2103 12.4362 14.7936 10.5087C15.4846 8.22508 16.3889 5.1709 13.7728 5.1709H11.5691C10.9106 5.1709 10.3324 5.60639 10.1515 6.23961C9.76828 7.58028 9.09681 9.91915 8.56936 11.6996C8.30131 12.6044 8.07806 13.3814 7.73542 13.8653C7.54332 14.1366 7.22315 14.3638 6.77344 14.3638Z" fill="url(#paint5_linear_2955_63)"/>
<defs>
<radialGradient id="paint0_radial_2955_63" cx="0" cy="0" r="1" gradientUnits="userSpaceOnUse" gradientTransform="translate(12.9798 6.89064) rotate(-129.304) scale(5.50592 5.17732)">
<stop offset="0.0955758" stop-color="#00AEFF"/>
<stop offset="0.773185" stop-color="#2253CE"/>
<stop offset="1" stop-color="#0736C4"/>
</radialGradient>
<radialGradient id="paint1_radial_2955_63" cx="0" cy="0" r="1" gradientUnits="userSpaceOnUse" gradientTransform="translate(4.4258 10.8055) rotate(51.84) scale(5.08841 4.9359)">
<stop stop-color="#FFB657"/>
<stop offset="0.633728" stop-color="#FF5F3D"/>
<stop offset="0.923392" stop-color="#C02B3C"/>
</radialGradient>
<linearGradient id="paint2_linear_2955_63" x1="4.86454" y1="2.74944" x2="5.59271" y2="11.1738" gradientUnits="userSpaceOnUse">
<stop offset="0.156162" stop-color="#0D91E1"/>
<stop offset="0.487484" stop-color="#52B471"/>
<stop offset="0.652394" stop-color="#98BD42"/>
<stop offset="0.937361" stop-color="#FFC800"/>
</linearGradient>
<linearGradient id="paint3_linear_2955_63" x1="5.50095" y1="1.63574" x2="5.89857" y2="10.827" gradientUnits="userSpaceOnUse">
<stop stop-color="#3DCBFF"/>
<stop offset="0.246674" stop-color="#0588F7" stop-opacity="0"/>
</linearGradient>
<radialGradient id="paint4_radial_2955_63" cx="0" cy="0" r="1" gradientUnits="userSpaceOnUse" gradientTransform="translate(14.035 4.27087) rotate(109.274) scale(12.2149 14.633)">
<stop offset="0.0661714" stop-color="#8C48FF"/>
<stop offset="0.5" stop-color="#F2598A"/>
<stop offset="0.895833" stop-color="#FFB152"/>
</radialGradient>
<linearGradient id="paint5_linear_2955_63" x1="14.4382" y1="4.60966" x2="14.433" y2="7.11348" gradientUnits="userSpaceOnUse">
<stop offset="0.0581535" stop-color="#F8ADFA"/>
<stop offset="0.708063" stop-color="#A86EDD" stop-opacity="0"/>
</linearGradient>
</defs>
</svg>
