<svg width="16" height="16" viewBox="0 0 16 16" fill="none" xmlns="http://www.w3.org/2000/svg">
<path d="M13.6044 7.91013C13.4094 7.91013 13.2511 8.06839 13.2511 8.26339V14.0417C13.2511 14.1804 13.1383 14.2932 12.9996 14.2932H2.3748C2.23604 14.2932 2.12328 14.1804 2.12328 14.0417V5.11284H8.92036C9.11536 5.11284 9.27363 4.95458 9.27363 4.75958C9.27363 4.56458 9.11536 4.40631 8.92036 4.40631H2.12328V1.95805C2.12328 1.81929 2.23604 1.70653 2.3748 1.70653H12.9993C13.1381 1.70653 13.2508 1.81929 13.2508 1.95805V2.18725C13.2508 2.38225 13.4091 2.54051 13.6041 2.54051C13.7991 2.54051 13.9573 2.38225 13.9573 2.18725V1.95805C13.9573 1.42985 13.5275 1 12.9993 1H2.3748C1.8466 1 1.41675 1.42985 1.41675 1.95805V14.0417C1.41675 14.5699 1.8466 14.9997 2.3748 14.9997H12.9993C13.5275 14.9997 13.9573 14.5699 13.9573 14.0417V8.26339C13.9573 8.06839 13.7991 7.91013 13.6041 7.91013H13.6044Z" fill="#939CA3">
<path d="M7.68705 5.80243C5.72799 5.80243 4.09506 7.22566 3.7678 9.09259C3.76695 9.09683 3.76639 9.10107 3.76554 9.10531C3.72767 9.32518 3.70789 9.55099 3.70789 9.7816C3.70789 11.9755 5.49286 13.7605 7.68705 13.7605C9.88125 13.7605 11.6662 11.9755 11.6662 9.7816C11.6662 7.58769 9.88125 5.80243 7.68705 5.80243ZM7.68705 6.50896C9.331 6.50896 10.6955 7.72729 10.9252 9.30851L10.4405 9.79318C10.3936 9.8401 10.317 9.8401 10.2701 9.79318L9.55992 9.08298C9.40363 8.9267 9.19592 8.84078 8.9752 8.84078C8.75448 8.84078 8.54647 8.9267 8.39047 9.08298L7.74216 9.73129C7.71136 9.7621 7.67547 9.76662 7.6571 9.76662C7.63873 9.76662 7.60255 9.7621 7.57175 9.73129L7.0882 9.24774C6.93192 9.09146 6.7242 9.00555 6.50348 9.00555C6.28276 9.00555 6.07476 9.09146 5.91875 9.24774L5.39394 9.77255C5.34703 9.81947 5.27044 9.81947 5.22353 9.77255L4.49778 9.04681C4.83211 7.59475 6.13523 6.50896 7.68705 6.50896ZM7.68705 13.054C5.94532 13.054 4.51728 11.6861 4.42007 9.9684L4.72387 10.2722C5.04633 10.5947 5.57086 10.5947 5.8936 10.2722L6.41841 9.7474C6.44922 9.7166 6.48482 9.71207 6.50348 9.71207C6.52213 9.71207 6.55802 9.7166 6.58883 9.7474L7.07237 10.2309C7.22866 10.3872 7.43638 10.4731 7.6571 10.4731C7.87782 10.4731 8.08582 10.3872 8.24182 10.2309L8.89013 9.58264C8.92093 9.55183 8.95654 9.54731 8.9752 9.54731C8.99385 9.54731 9.02974 9.55183 9.06026 9.58264L9.77046 10.2928C9.93155 10.4539 10.1435 10.5348 10.3552 10.5348C10.5669 10.5348 10.7576 10.4618 10.9156 10.3163C10.6596 11.8673 9.30952 13.0542 7.68705 13.0542V13.054Z" fill="#939CA3">
<path d="M3.08813 2.65442C2.89313 2.65442 2.73486 2.81268 2.73486 3.00768C2.73486 3.20268 2.89313 3.36095 3.08813 3.36095H4.06144C4.25644 3.36095 4.41471 3.20268 4.41471 3.00768C4.41471 2.81268 4.25644 2.65442 4.06144 2.65442H3.08813Z" fill="#939CA3">
<path d="M5.21703 2.65442C5.02203 2.65442 4.86377 2.81268 4.86377 3.00768C4.86377 3.20268 5.02203 3.36095 5.21703 3.36095H6.19035C6.38535 3.36095 6.54361 3.20268 6.54361 3.00768C6.54361 2.81268 6.38535 2.65442 6.19035 2.65442H5.21703Z" fill="#939CA3">
<path d="M12.6163 5.07494C12.7619 5.02125 12.7619 4.81551 12.6163 4.76153L11.6769 4.41392L11.3293 3.47452C11.2756 3.32897 11.0699 3.32897 11.0159 3.47452L10.6683 4.41392L9.72891 4.76153C9.58336 4.81522 9.58336 5.02096 9.72891 5.07494L10.6683 5.42256L11.0159 6.36195C11.0696 6.5075 11.2754 6.5075 11.3293 6.36195L11.6769 5.42256L12.6163 5.07494Z" fill="#939CA3">
<path d="M14.535 3.75063L13.8559 3.49939L13.6046 2.82027C13.5809 2.75612 13.4899 2.75612 13.4661 2.82027L13.2149 3.49939L12.5358 3.75063C12.4716 3.77437 12.4716 3.86537 12.5358 3.88911L13.2149 4.14035L13.4661 4.81946C13.4899 4.88362 13.5809 4.88362 13.6046 4.81946L13.8559 4.14035L14.535 3.88911C14.5991 3.86537 14.5991 3.77437 14.535 3.75063Z" fill="#939CA3">
<path d="M14.0359 6.69378L13.6552 6.55275L13.5142 6.17208C13.4905 6.10792 13.3995 6.10792 13.3757 6.17208L13.2347 6.55275L12.854 6.69378C12.7899 6.71752 12.7899 6.80852 12.854 6.83226L13.2347 6.97328L13.3757 7.35396C13.3995 7.41811 13.4905 7.41811 13.5142 7.35396L13.6552 6.97328L14.0359 6.83226C14.1001 6.80852 14.1001 6.71752 14.0359 6.69378Z" fill="#939CA3">
</svg>
