<svg width="16" height="17" viewBox="0 0 16 17" fill="none" xmlns="http://www.w3.org/2000/svg">
<g clip-path="url(#clip0_2106_423)">
<path d="M5.73 3.91592H7.02998C7.43999 3.91592 7.77998 3.5759 7.77998 3.16592C7.77998 2.75595 7.43999 2.41592 7.02998 2.41592H5.73C5.31999 2.41592 4.98 2.75595 4.98 3.16592C4.98 3.5759 5.31999 3.91592 5.73 3.91592Z" fill="#939CA3"/>
<path d="M9.75002 10.0459C9.84999 10.136 9.97002 10.1859 10.1 10.1859L10.12 10.2059C10.24 10.2059 10.37 10.1559 10.47 10.0559L11.87 8.65591C12.07 8.4559 12.07 8.1459 11.87 7.94595C11.67 7.74594 11.36 7.74594 11.16 7.94595L10.11 8.99594L9.37999 8.28592C9.18001 8.08591 8.86 8.08591 8.67 8.28592C8.47002 8.48593 8.47002 8.80594 8.67 8.99594L9.75002 10.0459Z" fill="#939CA3"/>
<path fill-rule="evenodd" clip-rule="evenodd" d="M3.71999 16.956H9.04997C9.99998 16.956 10.77 16.1859 10.77 15.2359V12.6812C12.5902 12.4312 14 10.863 14 8.97592C14 7.08884 12.5902 5.52066 10.77 5.27066V2.71597C10.77 1.76596 9.99998 0.995941 9.04997 0.995941H3.71999C2.76997 0.995941 1.99998 1.76596 1.99998 2.71597V15.2359C1.99998 16.1859 2.76997 16.956 3.71999 16.956ZM9.76997 15.2359V12.6839C7.94011 12.4427 6.52 10.8699 6.52 8.97592C6.52 7.08194 7.94011 5.50919 9.76997 5.26797V2.71597C9.76997 2.31595 9.45 1.99594 9.04997 1.99594H3.71999C3.31999 1.99594 2.99998 2.31595 2.99998 2.71597V15.2359C2.99998 15.6259 3.31999 15.956 3.71999 15.956H9.04997C9.43999 15.956 9.76997 15.636 9.76997 15.2359ZM10.26 6.24594C8.75002 6.24594 7.52 7.47592 7.52 8.98593C7.52 10.4959 8.75002 11.7259 10.26 11.7259C11.77 11.7259 13 10.4959 13 8.98593C13 7.47592 11.77 6.24594 10.26 6.24594Z" fill="#939CA3"/>
</g>
<defs>
<clipPath id="clip0_2106_423">
<rect width="16" height="16" fill="white" transform="translate(0 0.975952)"/>
</clipPath>
</defs>
</svg>
