<svg width="16" height="16" viewBox="0 0 16 16" fill="none" xmlns="http://www.w3.org/2000/svg">
<path d="M4 4.25C4 4.66421 3.66421 5 3.25 5C2.83579 5 2.5 4.66421 2.5 4.25C2.5 3.83579 2.83579 3.5 3.25 3.5C3.66421 3.5 4 3.83579 4 4.25Z" fill="#939CA3"/>
<path d="M6.5 4.25C6.5 4.66421 6.16421 5 5.75 5C5.33579 5 5 4.66421 5 4.25C5 3.83579 5.33579 3.5 5.75 3.5C6.16421 3.5 6.5 3.83579 6.5 4.25Z" fill="#939CA3"/>
<path d="M9 4.25C9 4.66421 8.66421 5 8.25 5C7.83579 5 7.5 4.66421 7.5 4.25C7.5 3.83579 7.83579 3.5 8.25 3.5C8.66421 3.5 9 3.83579 9 4.25Z" fill="#939CA3"/>
<path d="M11.5 4.25C11.5 4.66421 11.1642 5 10.75 5C10.3358 5 10 4.66421 10 4.25C10 3.83579 10.3358 3.5 10.75 3.5C11.1642 3.5 11.5 3.83579 11.5 4.25Z" fill="#939CA3"/>
<path d="M14 4.25C14 4.66421 13.6642 5 13.25 5C12.8358 5 12.5 4.66421 12.5 4.25C12.5 3.83579 12.8358 3.5 13.25 3.5C13.6642 3.5 14 3.83579 14 4.25Z" fill="#939CA3"/>
<path d="M4 6.75C4 7.16421 3.66421 7.5 3.25 7.5C2.83579 7.5 2.5 7.16421 2.5 6.75C2.5 6.33579 2.83579 6 3.25 6C3.66421 6 4 6.33579 4 6.75Z" fill="#939CA3"/>
<path d="M6.5 6.75C6.5 7.16421 6.16421 7.5 5.75 7.5C5.33579 7.5 5 7.16421 5 6.75C5 6.33579 5.33579 6 5.75 6C6.16421 6 6.5 6.33579 6.5 6.75Z" fill="#939CA3"/>
<path d="M9 6.75C9 7.16421 8.66421 7.5 8.25 7.5C7.83579 7.5 7.5 7.16421 7.5 6.75C7.5 6.33579 7.83579 6 8.25 6C8.66421 6 9 6.33579 9 6.75Z" fill="#939CA3"/>
<path d="M11.5 6.75C11.5 7.16421 11.1642 7.5 10.75 7.5C10.3358 7.5 10 7.16421 10 6.75C10 6.33579 10.3358 6 10.75 6C11.1642 6 11.5 6.33579 11.5 6.75Z" fill="#939CA3"/>
<path d="M14 6.75C14 7.16421 13.6642 7.5 13.25 7.5C12.8358 7.5 12.5 7.16421 12.5 6.75C12.5 6.33579 12.8358 6 13.25 6C13.6642 6 14 6.33579 14 6.75Z" fill="#939CA3"/>
<path d="M4 9.25C4 9.66421 3.66421 10 3.25 10C2.83579 10 2.5 9.66421 2.5 9.25C2.5 8.83579 2.83579 8.5 3.25 8.5C3.66421 8.5 4 8.83579 4 9.25Z" fill="#939CA3"/>
<path d="M6.5 9.25C6.5 9.66421 6.16421 10 5.75 10C5.33579 10 5 9.66421 5 9.25C5 8.83579 5.33579 8.5 5.75 8.5C6.16421 8.5 6.5 8.83579 6.5 9.25Z" fill="#939CA3"/>
<path d="M9 9.25C9 9.66421 8.66421 10 8.25 10C7.83579 10 7.5 9.66421 7.5 9.25C7.5 8.83579 7.83579 8.5 8.25 8.5C8.66421 8.5 9 8.83579 9 9.25Z" fill="#939CA3"/>
<path d="M11.5 9.25C11.5 9.66421 11.1642 10 10.75 10C10.3358 10 10 9.66421 10 9.25C10 8.83579 10.3358 8.5 10.75 8.5C11.1642 8.5 11.5 8.83579 11.5 9.25Z" fill="#939CA3"/>
<path d="M14 9.25C14 9.66421 13.6642 10 13.25 10C12.8358 10 12.5 9.66421 12.5 9.25C12.5 8.83579 12.8358 8.5 13.25 8.5C13.6642 8.5 14 8.83579 14 9.25Z" fill="#939CA3"/>
<path d="M4 11.75C4 12.1642 3.66421 12.5 3.25 12.5C2.83579 12.5 2.5 12.1642 2.5 11.75C2.5 11.3358 2.83579 11 3.25 11C3.66421 11 4 11.3358 4 11.75Z" fill="#939CA3"/>
<path d="M6.5 11.75C6.5 12.1642 6.16421 12.5 5.75 12.5C5.33579 12.5 5 12.1642 5 11.75C5 11.3358 5.33579 11 5.75 11C6.16421 11 6.5 11.3358 6.5 11.75Z" fill="#939CA3"/>
<path d="M9 11.75C9 12.1642 8.66421 12.5 8.25 12.5C7.83579 12.5 7.5 12.1642 7.5 11.75C7.5 11.3358 7.83579 11 8.25 11C8.66421 11 9 11.3358 9 11.75Z" fill="#939CA3"/>
<path d="M11.5 11.75C11.5 12.1642 11.1642 12.5 10.75 12.5C10.3358 12.5 10 12.1642 10 11.75C10 11.3358 10.3358 11 10.75 11C11.1642 11 11.5 11.3358 11.5 11.75Z" fill="#939CA3"/>
<path d="M14 11.75C14 12.1642 13.6642 12.5 13.25 12.5C12.8358 12.5 12.5 12.1642 12.5 11.75C12.5 11.3358 12.8358 11 13.25 11C13.6642 11 14 11.3358 14 11.75Z" fill="#939CA3"/>
</svg>
