<svg width="16" height="16" viewBox="0 0 16 16" fill="none" xmlns="http://www.w3.org/2000/svg">
<path d="M11.0725 4.23501H10.5301C10.7433 3.95203 10.8694 3.60027 10.8694 3.21954C10.8694 2.28638 10.1101 1.52708 9.17699 1.52708C8.24384 1.52708 7.48454 2.28638 7.48454 3.21954C7.48454 3.60027 7.611 3.95203 7.82384 4.23501H7.28144C6.34829 4.23501 5.58898 4.99431 5.58898 5.92747V6.94375C3.49223 6.98004 1.79788 8.6966 1.79788 10.8017C1.79788 12.9069 3.52879 14.6605 5.65668 14.6605C6.11622 14.6605 6.55734 14.5796 6.96651 14.4315C7.08133 15.0239 7.60368 15.4729 8.22922 15.4729C8.60399 15.4729 8.94167 15.3118 9.17699 15.0554C9.41231 15.3118 9.74999 15.4729 10.1248 15.4729C10.4684 15.4729 10.7915 15.3391 11.0344 15.0962C11.2773 14.8533 11.411 14.5303 11.411 14.1867V10.5404C11.5169 10.5781 11.6309 10.5986 11.7495 10.5986C12.3095 10.5986 12.765 10.1432 12.765 9.58317V5.92747C12.765 4.99431 12.0057 4.23501 11.0725 4.23501ZM8.16152 3.21954C8.16152 2.65954 8.61699 2.20406 9.17699 2.20406C9.73699 2.20406 10.1925 2.65954 10.1925 3.21954C10.1925 3.77954 9.73699 4.23501 9.17699 4.23501C8.61699 4.23501 8.16152 3.77954 8.16152 3.21954ZM2.47486 10.8017C2.47486 9.04727 3.90221 7.61992 5.65668 7.61992C7.41115 7.61992 8.8385 9.04727 8.8385 10.8017C8.8385 12.5562 7.41115 13.9836 5.65668 13.9836C3.90221 13.9836 2.47486 12.5562 2.47486 10.8017ZM8.22922 14.7959C7.89316 14.7959 7.61993 14.5227 7.61993 14.1867V14.1225C8.10411 13.8352 8.52032 13.445 8.8385 12.9824V14.1867C8.8385 14.5227 8.56527 14.7959 8.22922 14.7959ZM12.088 9.58317C12.088 9.76975 11.9361 9.92166 11.7495 9.92166C11.563 9.92166 11.411 9.76975 11.411 9.58317V6.82108C11.411 6.63424 11.2594 6.48259 11.0725 6.48259C10.8857 6.48259 10.7341 6.63424 10.7341 6.82108V14.1867C10.7341 14.3494 10.6707 14.5024 10.5556 14.6175C10.4405 14.7326 10.2875 14.7959 10.1248 14.7959C9.78871 14.7959 9.51548 14.5227 9.51548 14.1867V10.8017C9.51548 9.39037 8.75374 8.15393 7.61993 7.48101V6.82108C7.61993 6.63424 7.46829 6.48259 7.28144 6.48259C7.09459 6.48259 6.94295 6.63424 6.94295 6.82108V7.16364C6.7255 7.08646 6.49912 7.02824 6.26597 6.99114V5.92747C6.26597 5.36747 6.72144 4.91199 7.28144 4.91199H11.0725C11.6325 4.91199 12.088 5.36747 12.088 5.92747V9.58317Z" fill="#939CA3">
<path d="M5.65668 8.02611C4.12616 8.02611 2.88105 9.27122 2.88105 10.8017C2.88105 12.3323 4.12616 13.5774 5.65668 13.5774C7.1872 13.5774 8.43231 12.3323 8.43231 10.8017C8.43231 9.27122 7.1872 8.02611 5.65668 8.02611ZM5.65668 12.9004C4.49958 12.9004 3.55804 11.9588 3.55804 10.8017C3.55804 9.64464 4.49958 8.70309 5.65668 8.70309C6.81378 8.70309 7.75533 9.64464 7.75533 10.8017C7.75533 11.9588 6.81378 12.9004 5.65668 12.9004Z" fill="#939CA3">
<path d="M7.01065 10.4632H6.46906C6.3361 10.1456 6.02225 9.92166 5.65668 9.92166C5.17142 9.92166 4.77661 10.3165 4.77661 10.8017C4.77661 11.287 5.17142 11.6818 5.65668 11.6818C6.02198 11.6818 6.3361 11.4579 6.46906 11.1402H7.01065C7.1975 11.1402 7.34914 10.9886 7.34914 10.8017C7.34914 10.6149 7.1975 10.4632 7.01065 10.4632ZM5.65668 11.0048C5.54457 11.0048 5.45359 10.9138 5.45359 10.8017C5.45359 10.6896 5.54457 10.5986 5.65668 10.5986C5.76879 10.5986 5.85978 10.6896 5.85978 10.8017C5.85978 10.9138 5.76879 11.0048 5.65668 11.0048Z" fill="#939CA3">
<path d="M14.8636 1.5C14.6768 1.5 14.5252 1.65164 14.5252 1.83849V2.33946H13.7805C13.5936 2.33946 13.442 2.4911 13.442 2.67795C13.442 2.8648 13.5936 3.01644 13.7805 3.01644H14.5252V3.96422H13.7805C13.5936 3.96422 13.442 4.11586 13.442 4.30271C13.442 4.48956 13.5936 4.6412 13.7805 4.6412H14.5252V5.58897H13.7805C13.5936 5.58897 13.442 5.74062 13.442 5.92747C13.442 6.11431 13.5936 6.26596 13.7805 6.26596H14.5252V7.21373H13.7805C13.5936 7.21373 13.442 7.36538 13.442 7.55222C13.442 7.73907 13.5936 7.89072 13.7805 7.89072H14.5252V8.83849H13.7805C13.5936 8.83849 13.442 8.99014 13.442 9.17698C13.442 9.36383 13.5936 9.51547 13.7805 9.51547H14.5252V10.4632H13.7805C13.5936 10.4632 13.442 10.6149 13.442 10.8017C13.442 10.9886 13.5936 11.1402 13.7805 11.1402H14.5252V15.1615C14.5252 15.3484 14.6768 15.5 14.8636 15.5C15.0505 15.5 15.2021 15.3484 15.2021 15.1615V1.83849C15.2021 1.65164 15.0505 1.5 14.8636 1.5Z" fill="#939CA3">
</svg>
