<svg width="16" height="16" viewBox="0 0 16 16" fill="none" xmlns="http://www.w3.org/2000/svg">
<path fill-rule="evenodd" clip-rule="evenodd" d="M10.0355 3.97679V1.6213C10.0355 1.24852 9.7692 1 9.3846 1L5.92307 1.00592C5.54438 1.00592 5.27219 1.25444 5.27219 1.62722V3.97781C3.90367 4.78181 3 6.26685 3 7.99409C3 9.71738 3.90367 11.2011 5.27219 12.0047V14.3728C5.27219 14.7397 5.54438 14.9941 5.92307 14.9941L9.3846 15C9.7692 15 10.0355 14.7456 10.0355 14.3787V12.0057C11.1603 11.345 11.9718 10.2239 12.2246 8.88756H12.5917C12.7633 8.88756 12.8876 8.7633 12.8876 8.58582V7.39054C12.8876 7.21892 12.7633 7.08875 12.5917 7.08875H12.2227C11.9677 5.75432 11.1575 4.63615 10.0355 3.97679ZM3.89349 7.99409C3.89349 10.2248 5.42604 11.7515 7.6568 11.7515C9.88165 11.7515 11.4142 10.2248 11.4142 7.99409C11.4142 5.76331 9.88165 4.23077 7.6568 4.23077C5.42604 4.23077 3.89349 5.76331 3.89349 7.99409ZM9.92306 6.67455L8.02959 8.32542C7.78699 8.54436 7.53847 8.54436 7.28994 8.32542L6.07693 7.30769C5.90533 7.15974 5.88166 6.90531 6.02367 6.73964C6.1716 6.57397 6.42013 6.55029 6.57989 6.68637L7.65681 7.59171L9.36688 6.10651C9.53846 5.96449 9.78108 5.95858 9.92902 6.10651C10.0888 6.27217 10.0888 6.52661 9.92306 6.67455Z" fill="#939CA3">
</svg>
