<svg width="16" height="16" viewBox="0 0 16 16" fill="none" xmlns="http://www.w3.org/2000/svg">
<path d="M4.49034 15H11.5104C12.7661 15 13.4608 14.3387 13.4608 13.0763V8.9752H13.5075C14.0953 8.84826 14.4226 8.37405 14.4226 7.69276V5.93607C14.4226 5.12118 13.9684 4.60687 13.1535 4.60687H11.8043C12.1583 4.25286 12.3653 3.77195 12.3653 3.21755C12.3653 1.92176 11.3434 1 10.0476 1C9.1125 1 8.33768 1.51431 7.99701 2.40935C7.65639 1.51431 6.88824 1 5.94644 1C4.65732 1 3.6287 1.92176 3.6287 3.21755C3.6287 3.77195 3.83576 4.25286 4.19645 4.60687H2.84721C2.06572 4.60687 1.57812 5.12118 1.57812 5.93607V7.69276C1.57812 8.37405 1.89874 8.84826 2.48652 8.9752H2.53328V13.0763C2.53328 14.3387 3.22793 15 4.49034 15ZM7.40258 13.9981H4.47698C3.92259 13.9981 3.60866 13.6842 3.60866 13.1297V9.02194H7.40258V13.9981ZM8.59149 13.9981V9.02194H12.3854V13.1297C12.3854 13.6842 12.0715 13.9981 11.5171 13.9981H8.59149ZM7.40258 8.01337H3.12106C2.78709 8.01337 2.65351 7.8731 2.65351 7.53915V6.08302C2.65351 5.74904 2.78709 5.61546 3.12106 5.61546H7.40258V8.01337ZM8.59149 8.01337V5.61546H12.8863C13.2203 5.61546 13.3472 5.74904 13.3472 6.08302V7.53915C13.3472 7.8731 13.2203 8.01337 12.8863 8.01337H8.59149ZM7.44932 4.60687H6.40733C5.35866 4.60687 4.74416 4.01241 4.74416 3.27767C4.74416 2.54294 5.27851 2.11546 6.01324 2.11546C6.80809 2.11546 7.44932 2.7166 7.44932 3.70515V4.60687ZM8.54475 4.60687V3.70515C8.54475 2.7166 9.18597 2.11546 9.9808 2.11546C10.7155 2.11546 11.2499 2.54294 11.2499 3.27767C11.2499 4.01241 10.642 4.60687 9.58672 4.60687H8.54475Z" fill="#939CA3">
</svg>
