<svg width="16" height="16" viewBox="0 0 16 16" fill="none" xmlns="http://www.w3.org/2000/svg">
<path d="M15 8.81777C15 8.81471 14.9997 8.81192 14.9994 8.80914C14.9966 8.73224 14.9729 8.65535 14.9261 8.5871C14.8509 8.47817 14.7334 8.41632 14.6108 8.40769L13.7789 8.25892C13.5521 8.21825 13.3346 8.36952 13.2939 8.59685C13.2602 8.78573 13.3591 8.96737 13.524 9.04649L12.8487 9.5123C12.7916 9.54796 12.7328 9.58055 12.6729 9.61036V7.52288C12.8924 7.44794 13.1025 7.34849 13.3003 7.22451C13.3053 7.22117 13.3106 7.21783 13.3153 7.21448L14.0085 6.73642C14.0191 6.92531 14.1575 7.0894 14.3517 7.12422C14.3765 7.12868 14.4013 7.13091 14.4258 7.13091C14.6244 7.13091 14.8005 6.98883 14.8367 6.78657L14.9936 5.90957C14.9975 5.88728 14.9991 5.86499 14.9997 5.84298C14.9997 5.83741 15.0003 5.83212 15 5.82655C15 5.82348 14.9997 5.8207 14.9994 5.81791C14.9966 5.74102 14.9729 5.66413 14.9261 5.59587C14.8509 5.48695 14.7334 5.4251 14.6108 5.41646L13.7786 5.26769C13.5519 5.22702 13.3343 5.3783 13.2936 5.60563C13.2599 5.79451 13.3588 5.97615 13.5237 6.05527L12.8484 6.52107C12.7913 6.55673 12.7325 6.58933 12.6726 6.61914V2.60159C12.6726 2.43722 12.5762 2.28789 12.4261 2.22047C12.2762 2.15306 12.1004 2.1798 11.9773 2.28901L9.68363 4.32355C9.5942 4.40295 9.54294 4.51662 9.54294 4.63613V6.20822L9.17883 6.07672C9.0933 6.0458 9.0061 6.01905 8.91807 5.99593V2.60159C8.91807 2.43722 8.82167 2.28789 8.67151 2.22047C8.52163 2.15306 8.34584 2.1798 8.2227 2.28901L5.92907 4.32355C5.83964 4.40295 5.78838 4.51662 5.78838 4.63613V6.50826L5.1635 6.7094V2.60159C5.1635 2.43722 5.06711 2.28789 4.91695 2.22047C4.76707 2.15306 4.59128 2.1798 4.46814 2.28901L2.17618 4.32355C2.08675 4.40295 2.03549 4.51662 2.03549 4.63613V6.40991L1.55966 6.2383C1.34264 6.16002 1.10305 6.27257 1.02477 6.48959C0.946482 6.70661 1.05903 6.9462 1.27605 7.02449L2.03549 7.29834V9.40086L1.55966 9.22925C1.34264 9.15097 1.10305 9.26352 1.02477 9.48054C0.946482 9.69756 1.05903 9.93715 1.27605 10.0154L2.03549 10.2893V11.3633C2.03549 11.4828 2.08675 11.5964 2.17618 11.6758L4.46954 13.7107C4.54754 13.7797 4.64672 13.816 4.74701 13.816C4.80496 13.816 4.86346 13.804 4.91834 13.7792C5.06823 13.7118 5.1649 13.5624 5.1649 13.3981V10.5785L5.78977 10.3773V11.3635C5.78977 11.483 5.84104 11.5967 5.93046 11.6761L8.2241 13.7109C8.3021 13.78 8.40128 13.8162 8.50157 13.8162C8.55952 13.8162 8.61802 13.8043 8.67291 13.7795C8.82279 13.712 8.91946 13.5627 8.91946 13.3984V9.86221L9.54434 10.0879V11.3635C9.54434 11.483 9.5956 11.5967 9.68503 11.6761L11.9784 13.7109C12.0564 13.78 12.1556 13.8162 12.2559 13.8162C12.3138 13.8162 12.3723 13.8043 12.4272 13.7795C12.5771 13.712 12.6737 13.5627 12.6737 13.3984V10.5141C12.8933 10.4392 13.1033 10.3397 13.3011 10.2157C13.3061 10.2124 13.3114 10.2091 13.3165 10.2057L14.0096 9.72765C14.0202 9.91653 14.1586 10.0806 14.3528 10.1154C14.3776 10.1199 14.4024 10.1221 14.4269 10.1221C14.6255 10.1221 14.8016 9.98005 14.8378 9.77779L14.9947 8.90079C14.9986 8.8785 15.0002 8.85622 15.0008 8.83421C15.0008 8.82864 15.0014 8.82334 15.0011 8.81777H15ZM4.32913 12.469L2.87126 11.1758V10.591L2.96877 10.6261C3.08132 10.6668 3.19749 10.7008 3.31394 10.7278C3.34542 10.735 3.37718 10.7387 3.40811 10.7387C3.59838 10.7387 3.77027 10.6077 3.81485 10.4147C3.86667 10.1898 3.72626 9.96556 3.50143 9.91347C3.4173 9.89397 3.33344 9.86945 3.2521 9.8402L2.87098 9.70285V7.60033L2.96877 7.63543C3.08132 7.67611 3.19749 7.7101 3.31394 7.73712C3.34542 7.74436 3.37718 7.74798 3.40811 7.74798C3.59838 7.74798 3.77027 7.61705 3.81485 7.42398C3.86667 7.19916 3.72626 6.9749 3.50143 6.9228C3.4173 6.90358 3.33344 6.87878 3.2521 6.84953L2.87098 6.71219V4.82501L4.32885 3.5318V12.4698L4.32913 12.469ZM5.1649 9.70062V7.58752L5.78977 7.38637V9.49948L5.1649 9.70062ZM8.08313 12.469L6.62527 11.1758V10.1082L7.34765 9.87558C7.56746 9.80482 7.68809 9.56941 7.61733 9.3496C7.54657 9.12979 7.31116 9.00916 7.09135 9.07992L6.62527 9.23008V7.11698L7.34765 6.88435C7.56746 6.81359 7.68809 6.57818 7.61733 6.35838C7.54657 6.13857 7.31116 6.01794 7.09135 6.0887L6.62527 6.23886V4.8239L8.08313 3.53068V12.4687V12.469ZM9.17966 9.06767C9.09413 9.03674 9.00721 9.01 8.9189 8.98715V6.87126L9.54378 7.09692V9.19944L9.17966 9.06795V9.06767ZM10.3796 11.1758V10.3896L10.6785 10.4974C10.7685 10.53 10.861 10.5584 10.9534 10.5821C10.9883 10.591 11.0231 10.5952 11.0574 10.5952C11.2437 10.5952 11.4134 10.4698 11.4619 10.2809C11.5193 10.0572 11.3844 9.82961 11.1607 9.7725C11.0941 9.75551 11.0273 9.73489 10.9621 9.71121L10.3796 9.50087V7.39835L10.6785 7.50617C10.7682 7.53848 10.8607 7.56718 10.9534 7.59086C10.9883 7.59977 11.0231 7.60395 11.0574 7.60395C11.2437 7.60395 11.4134 7.47859 11.4619 7.2897C11.5193 7.066 11.3844 6.83839 11.1607 6.78128C11.0939 6.764 11.027 6.74367 10.9621 6.72026L10.3796 6.50993V4.82418L11.8374 3.53096V7.21086C11.8374 7.21086 11.8374 7.21253 11.8374 7.21337V10.2024C11.8374 10.2024 11.8374 10.2035 11.8374 10.204V12.4687L10.3796 11.1755V11.1758Z" fill="#939CA3"/>
</svg>
