<svg width="16" height="16" viewBox="0 0 16 16" fill="none" xmlns="http://www.w3.org/2000/svg">
<path d="M8.33197 10.19V5.81H11.1818C11.9213 5.81 12.5372 5.98358 13.0294 6.33075C13.5216 6.67554 13.7677 7.22006 13.7677 7.96433V7.9893C13.7677 8.7193 13.5181 9.26858 13.0187 9.63715C12.5194 10.0057 11.9071 10.19 11.1818 10.19H8.33197ZM9.63028 9.2127H11.0606C11.4101 9.2127 11.724 9.11878 12.0022 8.93093C12.2804 8.7407 12.4195 8.43039 12.4195 8V7.97146C12.4195 7.55772 12.2851 7.26286 12.0164 7.0869C11.7478 6.90856 11.4291 6.81939 11.0606 6.81939H9.63028V9.2127Z" fill="#939CA3"/>
<path d="M2.23224 10.19V5.81H3.56621V7.35441H6.3055V5.81H7.6359V10.19H6.3055V8.49578H3.56621V10.19H2.23224Z" fill="#939CA3"/>
</svg>
