<svg width="16" height="16" viewBox="0 0 16 16" fill="none" xmlns="http://www.w3.org/2000/svg">
<g clip-path="url(#clip0_2178_3384)">
<path d="M12.2714 12.9457C12.0384 12.9457 11.8216 12.7979 11.7445 12.5647C11.6483 12.2737 11.8063 11.9597 12.0972 11.8637C12.9106 11.5962 13.6186 11.0786 14.1203 10.3847C14.6219 9.69078 14.8914 8.85611 14.8903 7.99989C14.8903 6.26449 13.7867 4.71814 12.1442 4.15218C11.8546 4.05232 11.7007 3.7366 11.8006 3.44677C11.9003 3.15713 12.2154 3.00309 12.5058 3.10295C14.5957 3.82314 16 5.791 16 7.99985C16.0014 9.08955 15.6584 10.1518 15.02 11.0349C14.3817 11.9181 13.4806 12.577 12.4455 12.9175C12.3893 12.9361 12.3306 12.9456 12.2714 12.9457Z" fill="#939CA3"/>
<path d="M13.2267 7.99992C13.2267 6.67753 12.1536 5.60167 10.8327 5.59613V1.63582C10.8327 1.01939 10.5107 0.470818 9.99244 0.204293C9.51695 -0.0405671 8.97041 0.00121932 8.53059 0.315648L3.29984 4.06291H1.47959C0.663787 4.06291 0 4.7267 0 5.5425V10.4574C0 11.2732 0.663787 11.937 1.47959 11.937H3.29988L8.53101 15.6848C8.7807 15.8632 9.06477 15.9537 9.3509 15.9537C9.56839 15.9537 9.78702 15.9013 9.9925 15.7957C10.5109 15.5292 10.8327 14.9807 10.8327 14.3642V10.4037C12.1534 10.3982 13.2267 9.32214 13.2267 7.99992ZM2.92386 10.8273H1.47959C1.27558 10.8273 1.10969 10.6614 1.10969 10.4574V5.5425C1.10969 5.33849 1.27558 5.1726 1.47959 5.1726H2.92386V10.8273ZM9.72279 14.364C9.72279 14.6017 9.59981 14.7497 9.48476 14.8089C9.37971 14.8623 9.27615 14.8534 9.17664 14.7822L4.03375 11.0977V4.90221L9.17628 1.21802C9.27673 1.14661 9.38029 1.13737 9.48495 1.19101C9.59997 1.25018 9.72298 1.39814 9.72298 1.63582V14.364H9.72279ZM10.8325 9.29401V6.70582C11.5416 6.71136 12.1168 7.28951 12.1168 7.99992C12.117 8.71032 11.5416 9.28847 10.8325 9.29401Z" fill="#939CA3"/>
</g>
<defs>
<clipPath id="clip0_2178_3384">
<rect width="16" height="16" fill="white"/>
</clipPath>
</defs>
</svg>
