<svg width="16" height="16" viewBox="0 0 16 16" fill="none" xmlns="http://www.w3.org/2000/svg">
<path fill-rule="evenodd" clip-rule="evenodd" d="M15 8C15 11.866 11.866 15 8 15C4.13403 15 1 11.866 1 8C1 4.13401 4.13403 1 8 1C11.866 1 15 4.13401 15 8ZM11 8C11 9.65685 9.65686 11 8 11C6.34314 11 5 9.65685 5 8C5 6.34315 6.34314 5 8 5C9.65686 5 11 6.34315 11 8ZM8.97968 4.06365C9.14465 4.23973 9.41528 4.2295 9.57953 4.07041L9.58691 4.06285C9.66833 3.97518 9.69556 3.86069 9.69202 3.76311C9.68842 3.66516 9.6532 3.55673 9.57391 3.474L8.42889 2.25812C8.19745 2.0101 7.79376 2.00586 7.55792 2.25849L6.41504 3.47507C6.27075 3.629 6.23669 3.88671 6.40479 4.06183C6.56567 4.23225 6.84338 4.24162 7.01044 4.06355L7.99377 3.01598L8.97968 4.06365ZM4.05591 8.98741C4.23199 9.15241 4.22174 9.42305 4.06268 9.58727L4.05511 9.59467C3.96741 9.67609 3.85291 9.70331 3.75537 9.69976C3.65741 9.6962 3.54901 9.66096 3.46625 9.58165L2.25037 8.43664C2.00232 8.2052 1.99811 7.80154 2.25073 7.56568L3.46735 6.42282C3.62128 6.27851 3.87897 6.24443 4.05408 6.41252C4.22449 6.57346 4.23389 6.85114 4.05579 7.01818L3.00824 8.0015L4.05591 8.98741ZM11.9286 8.98741C11.7525 9.15241 11.7628 9.42305 11.9218 9.58727L11.9294 9.59467C12.0171 9.67609 12.1316 9.70331 12.2291 9.69976C12.3271 9.6962 12.4355 9.66096 12.5182 9.58165L13.7341 8.43664C13.9822 8.2052 13.9864 7.80154 13.7338 7.56568L12.5172 6.42282C12.3632 6.27851 12.1055 6.24443 11.9304 6.41252C11.76 6.57346 11.7506 6.85114 11.9287 7.01818L12.9763 8.0015L11.9286 8.98741ZM8.97968 11.9364C9.14465 11.7603 9.41528 11.7705 9.57953 11.9296L9.58691 11.9371C9.66833 12.0248 9.69556 12.1393 9.69202 12.2369C9.68842 12.3348 9.6532 12.4433 9.57391 12.526L8.42889 13.7419C8.19745 13.9899 7.79376 13.9941 7.55792 13.7415L6.41504 12.5249C6.27075 12.371 6.23669 12.1133 6.40479 11.9382C6.56567 11.7677 6.84338 11.7584 7.01044 11.9365L7.99377 12.984L8.97968 11.9364Z" fill="#939CA3">
</svg>
