<svg width="16" height="17" viewBox="0 0 16 17" fill="none" xmlns="http://www.w3.org/2000/svg">
<path d="M5.55502 7.60016H5.0509V9.46538H5.55502V7.60016Z" fill="#939CA3">
<path d="M4.35276 7.60016H3.97467V9.46538H4.35276V7.60016Z" fill="#939CA3">
<path d="M3.23106 7.60016H2.979V9.46538H3.23106V7.60016Z" fill="#939CA3">
<path d="M8.08064 9.87622C8.39107 9.87622 8.64273 9.62457 8.64273 9.31413C8.64273 9.0037 8.39107 8.75204 8.08064 8.75204C7.77021 8.75204 7.51855 9.0037 7.51855 9.31413C7.51855 9.62457 7.77021 9.87622 8.08064 9.87622Z" fill="#939CA3">
<path d="M13.3966 9.87622C13.707 9.87622 13.9586 9.62457 13.9586 9.31413C13.9586 9.0037 13.707 8.75204 13.3966 8.75204C13.0861 8.75204 12.8345 9.0037 12.8345 9.31413C12.8345 9.62457 13.0861 9.87622 13.3966 9.87622Z" fill="#939CA3">
<path d="M14.3569 8.25044C13.8654 7.8774 12.711 7.8043 12.711 7.8043C11.7733 6.92966 10.3921 6.88681 9.74931 6.88681C8.66042 6.88681 7.91434 7.21448 7.54633 7.42621L6.34906 6.97755V7.60013H6.64145V9.46536L7.20858 9.65944C7.16573 9.55358 7.14052 9.43763 7.14052 9.31412C7.14052 8.7974 7.56146 8.37395 8.08069 8.37395C8.59993 8.37395 9.02087 8.79488 9.02087 9.31412C9.02087 9.43763 8.99566 9.55358 8.95281 9.65944H12.527C12.4841 9.55106 12.4589 9.43511 12.4589 9.31412C12.4589 8.7974 12.8799 8.37395 13.3991 8.37395C13.9158 8.37395 14.3393 8.79488 14.3393 9.31412C14.3393 9.43763 14.3141 9.55358 14.2712 9.65944H14.798C14.793 9.66196 14.9165 8.67642 14.3569 8.25044ZM8.69319 7.8043C8.69319 7.8043 9.06372 7.33043 9.94088 7.30018C10.9516 7.26742 11.8162 7.61778 12.0884 7.8043H8.69319Z" fill="#939CA3">
<path d="M14.4275 10.3955V12.911H1.57254V4.08899H14.4275V7.26491H14.8055V3.71091H1.19446V13.2891H14.8055V10.3955H14.4275Z" fill="#939CA3">
<path fill-rule="evenodd" clip-rule="evenodd" d="M14.233 10.201H15V13.4835H1V3.51645H15V7.45937H14.233V4.28344H1.76699V12.7165H14.233V10.201ZM14.8055 13.2891H1.19445V3.7109H14.8055V7.26491H14.4275V4.08899H1.57254V12.911H14.4275V10.3955H14.8055V13.2891Z" fill="#939CA3">
</svg>
