<svg width="16" height="16" viewBox="0 0 16 16" fill="none" xmlns="http://www.w3.org/2000/svg">
<path d="M14.9989 5.46175C14.9989 5.45901 14.9986 5.45654 14.9984 5.4538C14.9973 5.4401 14.9956 5.42612 14.9934 5.41241C14.9932 5.40995 14.9926 5.40775 14.9921 5.40529C14.9896 5.39131 14.9866 5.3776 14.983 5.36362C14.983 5.36335 14.983 5.3628 14.983 5.36252L14.1607 2.36626C14.1034 2.15794 13.914 2.01349 13.698 2.01349H2.30202C2.08602 2.01349 1.89661 2.15794 1.83933 2.36626L1.01701 5.3628C1.01701 5.3628 1.01701 5.36362 1.01701 5.36389C1.01701 5.36444 1.01701 5.36499 1.01646 5.36554C1.01262 5.37952 1.0096 5.3935 1.00741 5.40775C1.00714 5.40967 1.00686 5.41132 1.00632 5.41296C1.00412 5.42721 1.00248 5.44119 1.00138 5.45545C1.00138 5.45764 1.00111 5.46011 1.00083 5.4623C1.00001 5.47655 0.999737 5.49108 1.00029 5.50533C1.00029 5.50616 1.00029 5.50698 1.00029 5.50753L1.3018 13.5238C1.3114 13.7814 1.52328 13.9854 1.78122 13.9854H14.2462C14.5047 13.9854 14.7169 13.7803 14.7256 13.5221L14.9997 5.50588C14.9997 5.50588 14.9997 5.50451 14.9997 5.50369C15.0003 5.48971 14.9997 5.47546 14.9992 5.46148L14.9989 5.46175ZM2.66768 2.97341H13.3321L13.8912 5.0103H2.10877L2.66795 2.97341H2.66768ZM6.61289 5.96967H9.88134V6.55653H6.61289V5.96967ZM13.7827 13.0265H2.24308L1.97775 5.96967H5.65379V7.03622C5.65379 7.30128 5.86842 7.51591 6.13348 7.51591H10.3613C10.6264 7.51591 10.841 7.30128 10.841 7.03622V5.96967H14.0239L13.7827 13.0265Z" fill="#939CA3"/>
</svg>
