<svg width="16" height="16" viewBox="0 0 16 16" fill="none" xmlns="http://www.w3.org/2000/svg">
<path d="M10.5298 5.15761C11.3536 4.63102 12.1982 2.25878 11.2702 2.02937C10.3161 1.8104 10.0189 4.3182 10.5298 5.15761ZM10.655 5.36095C11.8646 5.36616 14.3359 3.39016 13.4808 2.52989C12.6258 1.67484 10.6498 4.14615 10.655 5.36095ZM10.8583 5.48086C11.6925 6.00223 14.2055 5.69463 13.9865 4.75615C13.7623 3.81247 11.3849 4.6623 10.8583 5.48086ZM2.30257 13.6873C2.56847 13.9584 2.97514 14.1304 3.48087 13.8124L6.09817 12.1753L5.47252 11.5549C5.33175 11.4141 5.33175 11.2055 5.4673 11.07C5.60286 10.9344 5.81141 10.9292 5.95218 11.07L6.69255 11.7999L7.27648 11.4297L6.40056 10.5851C6.25979 10.4443 6.265 10.2358 6.39535 10.1002C6.53612 9.96465 6.74469 9.95944 6.88021 10.095L7.87083 11.0648L10.4152 9.45893C12.193 8.34319 12.5111 6.60179 11.1815 5.25146L10.7332 4.79786C9.57571 3.62477 8.08461 3.72905 6.98449 4.96992L8.37135 6.33592C8.51212 6.47668 8.51212 6.68001 8.38176 6.81557C8.24624 6.95634 8.03767 6.96154 7.8969 6.82077L6.56219 5.51736L6.19722 6.09087L7.19306 7.06583C7.33383 7.2066 7.33383 7.42037 7.19827 7.55073C7.0575 7.68625 6.85413 7.6915 6.71337 7.55073L5.82705 6.69046L2.16701 12.4933C1.87504 12.9626 1.99496 13.3797 2.30257 13.6873Z" fill="#939CA3"/>
</svg>
