<svg width="16" height="17" viewBox="0 0 16 17" fill="none" xmlns="http://www.w3.org/2000/svg">
<path d="M4.5231 15.5H11.4825C12.3524 15.5 12.6627 15.2507 12.6627 14.7631C12.6627 13.3335 10.873 11.3609 8.0028 11.3609C5.12706 11.3609 3.33734 13.3335 3.33734 14.7631C3.33734 15.2507 3.64763 15.5 4.5231 15.5ZM8.0028 10.3691C9.19408 10.3691 10.2192 9.30527 10.2192 7.92004C10.2192 6.55143 9.18855 5.53745 8.0028 5.53745C6.81704 5.53745 5.78643 6.57359 5.78643 7.93112C5.78643 9.30527 6.81704 10.3691 8.0028 10.3691Z" fill="#939CA3"/>
<path fill-rule="evenodd" clip-rule="evenodd" d="M8.00034 3.25077C9.11407 3.25077 10.0169 2.85884 10.0169 2.37538C10.0169 1.89193 9.11407 1.5 8.00034 1.5C6.88673 1.5 5.98395 1.89193 5.98395 2.37538C5.98395 2.85884 6.88673 3.25077 8.00034 3.25077ZM8.00034 2.96942C8.94133 2.96942 9.70417 2.64052 9.70417 2.23471C9.70417 1.8289 8.94133 1.5 8.00034 1.5C7.05947 1.5 6.29663 1.8289 6.29663 2.23471C6.29663 2.64052 7.05947 2.96942 8.00034 2.96942Z" fill="url(#paint0_linear_4836_32767)"/>
<path fill-rule="evenodd" clip-rule="evenodd" d="M8.00034 4.78261C9.7636 4.78261 11.193 4.16848 11.193 3.41093C11.193 2.65338 9.76363 2.03926 8.0004 2.03925C8.00038 2.03925 8.00036 2.03925 8.00034 2.03925C6.23708 2.03925 4.80768 2.65337 4.80768 3.41093C4.80768 4.16848 6.23708 4.78261 8.00034 4.78261ZM8.0004 4.34174C9.49024 4.34174 10.698 3.82631 10.698 3.19049C10.698 2.55468 9.49024 2.03925 8.0004 2.03925C6.51056 2.03925 5.30281 2.55468 5.30281 3.19049C5.30281 3.82631 6.51056 4.34174 8.0004 4.34174Z" fill="url(#paint1_linear_4836_32767)"/>
<path fill-rule="evenodd" clip-rule="evenodd" d="M2.94553 7.89822C2.94553 6.78456 2.55361 5.88177 2.07015 5.88177C1.58669 5.88177 1.19476 6.78456 1.19476 7.89822C1.19476 9.01188 1.58669 9.91467 2.07015 9.91467C2.55361 9.91467 2.94553 9.01188 2.94553 7.89822ZM2.66418 7.89822C2.66418 6.95725 2.33524 6.19445 1.92947 6.19445C1.5237 6.19445 1.19476 6.95725 1.19476 7.89822C1.19476 8.83919 1.5237 9.60199 1.92947 9.60199C2.33524 9.60199 2.66418 8.83919 2.66418 7.89822Z" fill="url(#paint2_linear_4836_32767)"/>
<path fill-rule="evenodd" clip-rule="evenodd" d="M4.47737 7.89828C4.47737 6.13502 3.86325 4.70562 3.10569 4.70562C2.34814 4.70562 1.73402 6.13499 1.73401 7.89822C1.73401 7.89824 1.73401 7.89826 1.73401 7.89828C1.73401 9.66154 2.34813 11.0909 3.10569 11.0909C3.86325 11.0909 4.47737 9.66154 4.47737 7.89828ZM4.03651 7.89822C4.03651 6.40838 3.52107 5.20063 2.88526 5.20063C2.24944 5.20063 1.73401 6.40838 1.73401 7.89822C1.73401 9.38806 2.24944 10.5958 2.88526 10.5958C3.52107 10.5958 4.03651 9.38806 4.03651 7.89822Z" fill="url(#paint3_linear_4836_32767)"/>
<path fill-rule="evenodd" clip-rule="evenodd" d="M13.0547 7.89822C13.0547 6.78456 13.4466 5.88177 13.9301 5.88177C14.4136 5.88177 14.8055 6.78456 14.8055 7.89822C14.8055 9.01188 14.4136 9.91467 13.9301 9.91467C13.4466 9.91467 13.0547 9.01188 13.0547 7.89822ZM13.3361 7.89822C13.3361 6.95725 13.665 6.19445 14.0708 6.19445C14.4765 6.19445 14.8055 6.95725 14.8055 7.89822C14.8055 8.83919 14.4765 9.60199 14.0708 9.60199C13.665 9.60199 13.3361 8.83919 13.3361 7.89822Z" fill="url(#paint4_linear_4836_32767)"/>
<path fill-rule="evenodd" clip-rule="evenodd" d="M11.5229 7.89828C11.5229 6.13502 12.137 4.70562 12.8946 4.70562C13.6521 4.70562 14.2662 6.13499 14.2662 7.89822C14.2662 7.89824 14.2662 7.89826 14.2662 7.89828C14.2662 9.66154 13.6521 11.0909 12.8946 11.0909C12.137 11.0909 11.5229 9.66154 11.5229 7.89828ZM11.9637 7.89822C11.9637 6.40838 12.4792 5.20063 13.115 5.20063C13.7508 5.20063 14.2662 6.40838 14.2662 7.89822C14.2662 9.38806 13.7508 10.5958 13.115 10.5958C12.4792 10.5958 11.9637 9.38806 11.9637 7.89822Z" fill="url(#paint5_linear_4836_32767)"/>
<defs>
<linearGradient id="paint0_linear_4836_32767" x1="8.0004" y1="1.5" x2="8.0004" y2="3.25077" gradientUnits="userSpaceOnUse">
<stop offset="0.16" stop-color="#939CA3" stop-opacity="0"/>
<stop offset="0.315" stop-color="#939CA3"/>
</linearGradient>
<linearGradient id="paint1_linear_4836_32767" x1="8.00034" y1="2.03925" x2="8.00034" y2="4.78261" gradientUnits="userSpaceOnUse">
<stop offset="0.16" stop-color="#939CA3" stop-opacity="0"/>
<stop offset="0.315" stop-color="#939CA3"/>
</linearGradient>
<linearGradient id="paint2_linear_4836_32767" x1="1.19476" y1="7.89822" x2="2.94553" y2="7.89822" gradientUnits="userSpaceOnUse">
<stop offset="0.16" stop-color="#939CA3" stop-opacity="0"/>
<stop offset="0.315" stop-color="#939CA3"/>
</linearGradient>
<linearGradient id="paint3_linear_4836_32767" x1="1.73401" y1="7.89828" x2="4.47737" y2="7.89828" gradientUnits="userSpaceOnUse">
<stop offset="0.16" stop-color="#939CA3" stop-opacity="0"/>
<stop offset="0.315" stop-color="#939CA3"/>
</linearGradient>
<linearGradient id="paint4_linear_4836_32767" x1="14.8055" y1="7.89822" x2="13.0547" y2="7.89822" gradientUnits="userSpaceOnUse">
<stop offset="0.16" stop-color="#939CA3" stop-opacity="0"/>
<stop offset="0.315" stop-color="#939CA3"/>
</linearGradient>
<linearGradient id="paint5_linear_4836_32767" x1="14.2662" y1="7.89828" x2="11.5229" y2="7.89828" gradientUnits="userSpaceOnUse">
<stop offset="0.16" stop-color="#939CA3" stop-opacity="0"/>
<stop offset="0.315" stop-color="#939CA3"/>
</linearGradient>
</defs>
</svg>
