<svg width="16" height="16" viewBox="0 0 16 16" fill="none" xmlns="http://www.w3.org/2000/svg">
<path d="M10.7649 9.94444C10.928 9.94444 11.0566 9.81589 11.0566 9.65278C11.0566 9.48966 10.928 9.36111 10.7649 9.36111H10.6893C10.5261 9.36111 10.3976 9.48966 10.3976 9.65278C10.3976 9.81589 10.5261 9.94444 10.6893 9.94444H10.7649Z" fill="#939CA3"/>
<path d="M11.4887 9.7716C11.3255 9.7716 11.197 9.90015 11.197 10.0633C11.197 10.2264 11.3309 10.3549 11.4887 10.3549H11.5643C11.7274 10.3549 11.8559 10.2264 11.8559 10.0633C11.8559 9.90015 11.722 9.7716 11.5643 9.7716H11.4887Z" fill="#939CA3"/>
<path d="M10.9485 10.2253H10.8729C10.7098 10.2253 10.5812 10.3539 10.5812 10.517C10.5812 10.6801 10.7152 10.8086 10.8729 10.8086H10.9485C11.1116 10.8086 11.2402 10.6801 11.2402 10.517C11.2402 10.3539 11.1062 10.2253 10.9485 10.2253Z" fill="#939CA3"/>
<path d="M12.6866 10.921C12.8552 9.93796 12.2329 8.9787 11.2542 8.74753C10.2831 8.51636 9.29791 9.08673 9.00408 10.0287C8.23279 9.83318 7.45285 9.72623 6.68155 9.70787V7.75586L11.5653 5.53812C11.6388 5.50571 11.695 5.44738 11.7231 5.375C11.7522 5.30154 11.7501 5.22052 11.7155 5.14275C11.6831 5.07793 11.6345 5.02932 11.5664 4.99583L6.68263 2.77809V2.44645C7.05532 2.42269 7.36319 2.10185 7.36319 1.72377C7.36319 1.34568 7.03155 1 6.63942 1H5.07306C4.68093 1 4.3493 1.33164 4.3493 1.72377C4.3493 2.1159 4.65717 2.42269 5.02985 2.44645V9.79429C2.63387 10.0903 1.03186 11.1122 1.03186 12.3534C1.03186 13.8377 3.39436 15 6.41149 15C8.22846 15 9.95254 14.5474 10.9258 13.816C11.1624 13.8431 11.4087 13.8549 11.695 13.8549C13.5606 13.8549 14.9681 13.209 14.9681 12.3534C14.9681 11.6642 14.0769 11.1079 12.6877 10.921H12.6866ZM6.63834 1.8534H5.07198C5.00177 1.8534 4.94235 1.79398 4.94235 1.72377C4.94235 1.65355 5.00177 1.59414 5.07198 1.59414H6.63834C6.70856 1.59414 6.76797 1.65355 6.76797 1.72377C6.76797 1.79398 6.70856 1.8534 6.63834 1.8534ZM6.68155 7.1088V3.42515L10.7303 5.26697L6.68155 7.1088ZM7.74019 12.3534C7.74019 12.4733 7.428 12.7401 6.68155 12.8741V11.8327C7.428 11.9667 7.74019 12.2335 7.74019 12.3534ZM6.09822 12.941C5.94158 12.9465 5.77955 12.9465 5.62291 12.941V2.44753H6.09822V12.941ZM3.97013 12.3534C3.97013 12.2302 4.32337 11.9623 5.02877 11.8327V12.8741C4.29097 12.7412 3.97013 12.4701 3.97013 12.3534ZM5.01797 10.3701V11.2235C3.99606 11.3855 3.36519 11.81 3.36519 12.3426C3.36519 12.9292 4.09328 13.371 5.26535 13.4974H5.28155C5.651 13.5406 6.02584 13.5406 6.39637 13.4974H6.41257C7.58464 13.3699 8.31272 12.9281 8.31272 12.3415C8.31272 11.7992 7.69698 11.3844 6.65995 11.2224V10.2912C7.44205 10.3096 8.19066 10.4165 8.88525 10.6088C8.8885 11.6545 9.73973 12.5035 10.7865 12.5035C11.4962 12.5035 12.1487 12.106 12.4706 11.4849C13.7539 11.6394 14.3513 12.0898 14.3524 12.3566C14.3556 12.4312 14.3167 12.5122 14.2357 12.5964C13.93 12.9162 13.0053 13.2597 11.695 13.2597C11.4476 13.2597 11.1948 13.2435 10.8848 13.2079C10.7843 13.1873 10.7066 13.2338 10.6547 13.2738C9.80887 13.9716 8.18417 14.4048 6.41365 14.4048C3.86427 14.4048 1.62816 13.4412 1.62816 12.3415C1.62816 11.459 3.0476 10.638 5.02013 10.369L5.01797 10.3701ZM10.8189 11.8997C10.0984 11.8997 9.5118 11.3131 9.5118 10.5915C9.50748 10.2458 9.64035 9.92068 9.88772 9.67438C10.134 9.42917 10.4657 9.29089 10.82 9.28549C11.5405 9.28549 12.126 9.87207 12.126 10.5926C12.126 11.3131 11.5394 11.8997 10.8189 11.8997Z" fill="#939CA3"/>
</svg>
