<svg width="16" height="16" viewBox="0 0 16 16" fill="none" xmlns="http://www.w3.org/2000/svg">
<path d="M1.18805 2.63407C1.05188 3.29548 1 4.15792 1 4.73504C1 9.58545 3.88559 12.7887 8.29504 12.7887C11.1352 12.7887 12.4711 11.1158 12.7628 10.5775L11.9523 10.5581C12.7953 11.44 13.1714 12.3867 13.5993 13.729C13.6966 14.0402 13.9106 14.1505 14.1376 14.1505C14.6174 14.1505 15 13.7355 15 13.1649C15 12.27 13.7161 10.7137 13.0481 10.0847C10.2079 7.46498 5.88281 9.01478 4.76748 6.12272C4.68318 5.90225 4.91662 5.70771 5.13061 5.92818C7.36775 8.16535 10.2468 6.27835 13.0481 8.85918C13.2686 9.05368 13.528 8.94993 13.5669 8.71653C13.5993 8.52845 13.6188 8.23015 13.6188 7.94484C13.6188 4.78043 11.4141 3.25658 8.31452 3.25658C7.277 3.25658 6.06438 3.50947 5.11116 3.50947C4.06716 3.50947 2.89347 3.42518 1.95971 2.42656C1.69384 2.15422 1.2918 2.19312 1.18805 2.63407Z" fill="#939CA3"/>
</svg>
