<svg width="16" height="16" viewBox="0 0 16 16" fill="none" xmlns="http://www.w3.org/2000/svg">
<path d="M8 11C7.40666 11 6.82664 10.8241 6.33329 10.4944C5.83994 10.1648 5.45542 9.69623 5.22836 9.14805C5.0013 8.59987 4.94189 7.99667 5.05764 7.41473C5.1734 6.83279 5.45912 6.29824 5.87868 5.87868C6.29824 5.45912 6.83279 5.1734 7.41473 5.05764C7.99667 4.94189 8.59987 5.0013 9.14805 5.22836C9.69623 5.45542 10.1648 5.83994 10.4944 6.33329C10.8241 6.82664 11 7.40666 11 8C11 8.79565 10.6839 9.55871 10.1213 10.1213C9.55871 10.6839 8.79565 11 8 11ZM8 6C7.60444 6 7.21776 6.1173 6.88886 6.33706C6.55996 6.55682 6.30362 6.86918 6.15224 7.23463C6.00087 7.60009 5.96126 8.00222 6.03843 8.39018C6.1156 8.77814 6.30608 9.13451 6.58579 9.41421C6.86549 9.69392 7.22186 9.8844 7.60982 9.96157C7.99778 10.0387 8.39991 9.99913 8.76537 9.84776C9.13082 9.69638 9.44318 9.44004 9.66294 9.11114C9.8827 8.78224 10 8.39556 10 8C10 7.46957 9.78929 6.96086 9.41421 6.58579C9.03914 6.21071 8.53043 6 8 6ZM8 4C7.86739 4 7.74021 3.94732 7.64645 3.85355C7.55268 3.75979 7.5 3.63261 7.5 3.5V1.5C7.5 1.36739 7.55268 1.24021 7.64645 1.14645C7.74021 1.05268 7.86739 1 8 1C8.13261 1 8.25979 1.05268 8.35355 1.14645C8.44732 1.24021 8.5 1.36739 8.5 1.5V3.5C8.5 3.63261 8.44732 3.75979 8.35355 3.85355C8.25979 3.94732 8.13261 4 8 4ZM11.18 5.32C11.0481 5.31812 10.9223 5.26421 10.83 5.17C10.7369 5.07632 10.6846 4.94959 10.6846 4.8175C10.6846 4.68541 10.7369 4.55868 10.83 4.465L12.245 3.05C12.2898 2.99766 12.345 2.95515 12.407 2.92514C12.469 2.89513 12.5366 2.87826 12.6055 2.8756C12.6743 2.87294 12.743 2.88454 12.8072 2.90968C12.8713 2.93482 12.9296 2.97295 12.9783 3.02167C13.0271 3.0704 13.0652 3.12868 13.0903 3.19284C13.1155 3.257 13.1271 3.32567 13.1244 3.39453C13.1217 3.46339 13.1049 3.53095 13.0749 3.59299C13.0449 3.65502 13.0023 3.71018 12.95 3.755L11.535 5.17C11.4887 5.21724 11.4335 5.25483 11.3725 5.28058C11.3116 5.30633 11.2462 5.31973 11.18 5.32ZM14.5 8.5H12.5C12.3674 8.5 12.2402 8.44732 12.1464 8.35355C12.0527 8.25979 12 8.13261 12 8C12 7.86739 12.0527 7.74021 12.1464 7.64645C12.2402 7.55268 12.3674 7.5 12.5 7.5H14.5C14.6326 7.5 14.7598 7.55268 14.8536 7.64645C14.9473 7.74021 15 7.86739 15 8C15 8.13261 14.9473 8.25979 14.8536 8.35355C14.7598 8.44732 14.6326 8.5 14.5 8.5ZM12.595 13.095C12.4638 13.0944 12.3381 13.0424 12.245 12.95L10.83 11.535C10.7481 11.4393 10.7053 11.3163 10.7101 11.1905C10.715 11.0646 10.7672 10.9453 10.8562 10.8562C10.9453 10.7672 11.0646 10.715 11.1905 10.7101C11.3163 10.7053 11.4393 10.7481 11.535 10.83L12.95 12.245C13.0431 12.3387 13.0954 12.4654 13.0954 12.5975C13.0954 12.7296 13.0431 12.8563 12.95 12.95C12.9033 12.9963 12.8479 13.033 12.787 13.0579C12.726 13.0828 12.6608 13.0954 12.595 13.095ZM8 15C7.86739 15 7.74021 14.9473 7.64645 14.8536C7.55268 14.7598 7.5 14.6326 7.5 14.5V12.5C7.5 12.3674 7.55268 12.2402 7.64645 12.1464C7.74021 12.0527 7.86739 12 8 12C8.13261 12 8.25979 12.0527 8.35355 12.1464C8.44732 12.2402 8.5 12.3674 8.5 12.5V14.5C8.5 14.6326 8.44732 14.7598 8.35355 14.8536C8.25979 14.9473 8.13261 15 8 15ZM3.405 13.095C3.3392 13.0954 3.27397 13.0828 3.21305 13.0579C3.15213 13.033 3.09672 12.9963 3.05 12.95C2.95687 12.8563 2.9046 12.7296 2.9046 12.5975C2.9046 12.4654 2.95687 12.3387 3.05 12.245L4.465 10.83C4.56065 10.7481 4.68369 10.7053 4.80953 10.7101C4.93536 10.715 5.05473 10.7672 5.14378 10.8562C5.23283 10.9453 5.285 11.0646 5.28986 11.1905C5.29472 11.3163 5.25191 11.4393 5.17 11.535L3.755 12.95C3.66187 13.0424 3.53617 13.0944 3.405 13.095ZM3.5 8.5H1.5C1.36739 8.5 1.24021 8.44732 1.14645 8.35355C1.05268 8.25979 1 8.13261 1 8C1 7.86739 1.05268 7.74021 1.14645 7.64645C1.24021 7.55268 1.36739 7.5 1.5 7.5H3.5C3.63261 7.5 3.75979 7.55268 3.85355 7.64645C3.94732 7.74021 4 7.86739 4 8C4 8.13261 3.94732 8.25979 3.85355 8.35355C3.75979 8.44732 3.63261 8.5 3.5 8.5ZM4.82 5.32C4.75385 5.31973 4.6884 5.30633 4.62747 5.28058C4.56653 5.25483 4.51131 5.21724 4.465 5.17L3.05 3.755C2.96809 3.65935 2.92528 3.53631 2.93014 3.41047C2.935 3.28464 2.98717 3.16527 3.07622 3.07622C3.16527 2.98717 3.28464 2.935 3.41047 2.93014C3.53631 2.92528 3.65935 2.96809 3.755 3.05L5.17 4.465C5.26313 4.55868 5.3154 4.68541 5.3154 4.8175C5.3154 4.94959 5.26313 5.07632 5.17 5.17C5.07768 5.26421 4.95188 5.31812 4.82 5.32Z" fill="#9CA3AF">
</svg>
