<svg width="16" height="17" viewBox="0 0 16 17" fill="none" xmlns="http://www.w3.org/2000/svg">
<path fill-rule="evenodd" clip-rule="evenodd" d="M8 15.1663C11.866 15.1663 15 12.0323 15 8.16632C15 4.30033 11.866 1.16632 8 1.16632C4.13401 1.16632 1 4.30033 1 8.16632C1 12.0323 4.13401 15.1663 8 15.1663ZM3.22168 9.7181C3.22168 11.1604 4.52051 12.6097 5.75097 12.6097C6.80371 12.6097 7.3574 11.7279 7.96582 10.1214C8.10938 10.1282 8.22558 10.1214 8.35549 10.1009V11.6937C8.35549 12.5071 8.7588 12.9446 9.55173 12.9446C10.9873 12.9446 12.4434 11.639 12.4434 10.4154C12.4434 9.36262 11.5752 8.82257 10.0029 8.22786C10.0098 8.0843 10.0029 7.95439 9.98923 7.80401H11.5274C12.334 7.80401 12.7783 7.40069 12.7783 6.60773C12.7783 5.17218 11.4726 3.71613 10.249 3.71613C9.20995 3.71613 8.66308 4.57062 8.07519 6.11554H8.07519C7.95216 6.11554 7.78807 6.11554 7.64452 6.14972V4.63214C7.64452 3.8255 7.2412 3.388 6.44824 3.388C5.00586 3.388 3.5498 4.68683 3.5498 5.9173C3.5498 6.9632 4.4248 7.51007 5.99707 8.10478C5.99707 8.23468 6.01074 8.39189 6.03808 8.5218H4.46582C3.65918 8.5218 3.22168 8.92512 3.22168 9.7181ZM8.99803 8.16632C8.99803 8.72002 8.5537 9.16434 8 9.16434C7.43948 9.16434 6.99509 8.72002 6.99509 8.16632C6.99509 7.60579 7.43948 7.16147 8 7.16147C8.5537 7.16147 8.99803 7.60579 8.99803 8.16632Z" fill="#939CA3"/>
</svg>
