<svg width="16" height="16" viewBox="0 0 16 16" fill="none" xmlns="http://www.w3.org/2000/svg">
<path d="M1.00003 7.99201C1.00003 6.31238 1.00003 4.63289 1.00003 2.95326C1.00003 1.96885 1.66342 1.1798 2.63237 1.01581C2.7333 0.998657 2.83747 0.993092 2.9401 0.993092C6.31204 0.99201 9.68413 0.991701 13.0561 0.992319C14.0281 0.992474 14.8266 1.67441 14.9782 2.63378C14.9943 2.73502 14.9991 2.83904 14.9991 2.94167C15.0002 6.30851 15.0002 9.67535 14.9998 13.0422C14.9997 14.0178 14.3283 14.8095 13.364 14.969C13.2604 14.9861 13.1538 14.9909 13.0485 14.9909C9.68166 14.992 6.31482 14.9922 2.94799 14.9917C1.97347 14.9915 1.17902 14.3163 1.0226 13.354C1.00529 13.2478 1.00112 13.1385 1.00096 13.0308C0.999725 11.3511 1.00003 9.67165 1.00003 7.99201ZM13.5031 7.99216C13.5031 4.96907 11.0406 2.49622 8.0348 2.48741C4.98481 2.47844 2.51119 4.92718 2.49929 7.95337C2.48708 11.0179 4.94633 13.4946 7.9807 13.4952C11.0355 13.4957 13.5031 11.0367 13.5031 7.99216ZM3.44398 2.98726C3.44537 2.74568 3.25077 2.54908 3.01043 2.54908C2.77457 2.54908 2.57765 2.74398 2.57549 2.97984C2.57333 3.21833 2.77256 3.41927 3.01058 3.41865C3.24737 3.41803 3.44259 3.22359 3.44398 2.98726ZM12.4785 2.98742C12.48 3.2239 12.6758 3.41849 12.9122 3.41849C13.151 3.41849 13.3493 3.21833 13.3471 2.97969C13.3449 2.74383 13.1487 2.54939 12.912 2.54908C12.6723 2.54861 12.4771 2.74614 12.4785 2.98742ZM3.44398 12.8872C3.44398 12.6467 3.25371 12.4542 3.01414 12.4525C2.77209 12.4508 2.5741 12.647 2.57549 12.8875C2.57688 13.1243 2.77519 13.3215 3.01043 13.3199C3.24985 13.3182 3.44398 13.1246 3.44398 12.8872ZM12.9139 12.4527C12.6745 12.4518 12.4811 12.6414 12.4786 12.8798C12.4763 13.1204 12.6721 13.3204 12.9103 13.3206C13.1463 13.3207 13.344 13.1263 13.347 12.891C13.3502 12.6512 13.1548 12.4536 12.9139 12.4527Z" fill="#939CA3"/>
<path d="M8.74889 9.42743C8.50468 9.56175 8.2444 9.6228 7.96248 9.62172C7.96062 9.66098 7.95768 9.69344 7.95768 9.7259C7.95738 10.3106 7.94779 10.8955 7.96031 11.4799C7.97159 12.0099 7.55675 12.3651 7.11841 12.4266C6.93015 12.453 6.749 12.4294 6.57203 12.3643C6.13956 12.2054 5.74944 11.9816 5.46397 11.6096C5.12594 11.1692 5.07045 10.6932 5.30878 10.1882C5.49426 9.79514 5.77448 9.47334 6.08376 9.17565C6.23384 9.03114 6.3949 8.8979 6.54853 8.7571C6.56631 8.74087 6.58377 8.70207 6.57635 8.68414C6.48485 8.46111 6.44544 8.23004 6.45641 7.98969C6.45688 7.97995 6.45317 7.97006 6.44961 7.94981C6.41654 7.94981 6.38377 7.94981 6.351 7.94981C5.74063 7.94981 5.1298 7.93729 4.5199 7.95352C3.92946 7.96913 3.48865 7.44378 3.56423 6.88828C3.65589 6.21469 3.99778 5.66847 4.59718 5.31946C5.02408 5.07093 5.46118 5.11668 5.8867 5.34435C6.30371 5.56754 6.64359 5.88501 6.9606 6.22922C7.07915 6.35797 7.18889 6.49476 7.30466 6.62598C7.32042 6.64391 7.35257 6.66571 7.37034 6.66091C7.47931 6.63124 7.58441 6.58626 7.69431 6.5623C7.80405 6.53835 7.91796 6.53309 8.04254 6.51794C8.04254 6.48672 8.04254 6.45148 8.04254 6.4164C8.04254 5.77759 8.0515 5.13878 8.03976 4.50028C8.03017 3.9828 8.43266 3.62283 8.87811 3.55837C9.0659 3.53117 9.24736 3.55389 9.4248 3.61881C9.85494 3.77631 10.2437 3.99795 10.5295 4.36581C10.9095 4.85531 10.9284 5.37325 10.6316 5.90974C10.4338 6.26755 10.1667 6.57003 9.87241 6.84933C9.72125 6.99276 9.56189 7.12785 9.40331 7.26325C9.36189 7.29864 9.3486 7.32322 9.37734 7.37669C9.47379 7.55568 9.52742 7.74935 9.53933 7.95182C9.54334 8.0206 9.56576 8.03621 9.63083 8.03606C10.2335 8.03374 10.8372 8.05662 11.4386 8.0288C12.157 7.99572 12.5899 8.70037 12.4031 9.32156C12.2796 9.73177 12.0771 10.0999 11.7661 10.4007C11.508 10.6505 11.2057 10.8091 10.8401 10.8262C10.5636 10.8392 10.3126 10.7525 10.0747 10.6214C9.67441 10.4012 9.34798 10.0917 9.04148 9.75913C8.94225 9.65155 8.8475 9.53965 8.74889 9.42743ZM7.99833 8.61521C8.29649 8.61598 8.541 8.37363 8.54147 8.07671C8.54209 7.77949 8.29927 7.53543 8.00158 7.53404C7.70528 7.53265 7.45922 7.77686 7.45829 8.07346C7.45752 8.37053 7.70065 8.61443 7.99833 8.61521Z" fill="#939CA3"/>
</svg>
