<svg width="16" height="16" viewBox="0 0 16 16" fill="none" xmlns="http://www.w3.org/2000/svg">
<g clip-path="url(#clip0_2085_26)">
<path d="M12.9579 0.00362236C10.3928 0.229689 8.49999 1.51004 7.39656 3.36099C6.65706 4.28802 5.17987 7.11824 4.64264 8.59983C3.66854 10.4422 2.81911 12.6344 2.15436 14.6105C1.74801 15.8189 3.57258 16.6073 3.98126 15.3935C4.47839 13.915 5.079 12.3165 5.75771 10.8331C6.43125 12.3405 7.11566 13.8431 7.85051 15.3218C8.42007 16.4697 10.1339 15.463 9.56644 14.319C8.80986 12.7968 8.10709 11.2503 7.41467 9.6986C7.42346 9.6686 7.43458 9.63937 7.4439 9.60962C7.55926 9.64247 7.68652 9.65256 7.82671 9.62592L11.0059 9.02971C11.4588 8.94462 11.6323 8.44903 11.5609 8.05225C11.3468 6.8632 10.6693 6.03602 9.82613 5.25332C9.70094 4.82757 9.28346 4.45097 8.82021 4.07669C9.75939 2.55838 11.2927 1.7343 13.2885 1.55841C14.3071 1.46917 13.9677 -0.085097 12.9579 0.00362236ZM9.09775 6.76207C9.35977 7.03469 9.58273 7.32154 9.75112 7.65366L8.21288 7.94206C8.47154 7.52562 8.76925 7.13247 9.09775 6.76207Z" fill="#939CA3"/>
<path d="M11.2912 5.40852C12.0447 5.40852 12.6556 4.79765 12.6556 4.0441C12.6556 3.29056 12.0447 2.67969 11.2912 2.67969C10.5376 2.67969 9.92676 3.29056 9.92676 4.0441C9.92676 4.79765 10.5376 5.40852 11.2912 5.40852Z" fill="#939CA3"/>
</g>
<defs>
<clipPath id="clip0_2085_26">
<rect width="16" height="16" fill="white"/>
</clipPath>
</defs>
</svg>
