<svg width="16" height="17" viewBox="0 0 16 17" fill="none" xmlns="http://www.w3.org/2000/svg">
<path d="M3.95324 7.5277C3.95324 7.27553 4.10842 7.12035 4.37028 7.12035H5.26741V6.24747C5.26741 5.99046 5.4129 5.83528 5.66504 5.83528C5.91237 5.83528 6.06271 5.99046 6.06271 6.24747V7.12035H6.90163C7.18289 7.12035 7.35264 7.27553 7.35264 7.5277C7.35264 7.78956 7.18289 7.94959 6.90163 7.94959H6.06271V8.82245C6.06271 9.07946 5.91237 9.23953 5.66504 9.23953C5.4129 9.23953 5.26741 9.07946 5.26741 8.82245V7.94959H4.37028C4.10842 7.94959 3.95324 7.78956 3.95324 7.5277ZM11.1109 7.4792C10.7132 7.4792 10.3786 7.15429 10.3786 6.7518C10.3786 6.34446 10.7132 6.01955 11.1109 6.01955C11.5182 6.01955 11.8431 6.34446 11.8431 6.7518C11.8431 7.15429 11.5182 7.4792 11.1109 7.4792ZM9.6415 8.95826C9.24387 8.95826 8.90926 8.63334 8.90926 8.23085C8.90926 7.82835 9.24387 7.4986 9.6415 7.4986C10.044 7.4986 10.3737 7.82835 10.3737 8.23085C10.3737 8.63334 10.044 8.95826 9.6415 8.95826ZM2.84759 12.8959C3.51195 12.8959 3.96779 12.6535 4.37513 12.1491L5.25284 11.0871C5.37893 10.9368 5.52443 10.864 5.66992 10.864H10.3301C10.4756 10.864 10.6211 10.9368 10.7472 11.0871L11.6249 12.1491C12.0322 12.6535 12.4881 12.8959 13.1524 12.8959C14.2629 12.8959 15 12.1588 15 11.0241C15 10.5391 14.8885 9.98144 14.6994 9.35589C14.4035 8.36179 13.8847 7.00882 13.39 5.96136C12.973 5.08848 12.7596 4.69084 11.7316 4.45807C10.8199 4.24955 9.55423 4.10892 8.00244 4.10892C6.45066 4.10892 5.18014 4.24955 4.26845 4.45807C3.24039 4.69084 3.02702 5.08848 2.60998 5.96136C2.11534 7.00882 1.59647 8.36179 1.30066 9.35589C1.11153 9.98144 1 10.5391 1 11.0241C1 12.1588 1.7371 12.8959 2.84759 12.8959Z" fill="#939CA3">
</svg>
