<svg width="16" height="16" viewBox="0 0 16 16" fill="none" xmlns="http://www.w3.org/2000/svg">
<g clip-path="url(#clip0_2204_3560)">
<path fill-rule="evenodd" clip-rule="evenodd" d="M5.57526 0.547C5.57526 0.244902 5.82016 0 6.12226 0H15.453C15.7551 0 16 0.244902 16 0.547V6.98317C16 6.98447 16 6.98576 15.9999 6.98705V9.87772C15.9999 10.1798 15.755 10.4247 15.4529 10.4247H13.209V12.6687C13.209 12.9708 12.9641 13.2157 12.662 13.2157H10.1903C10.0609 13.2157 9.95594 13.1108 9.95594 12.9813C9.95594 12.8519 10.0609 12.747 10.1903 12.747H12.662C12.7052 12.747 12.7402 12.7119 12.7402 12.6687V10.3212C12.7402 10.2985 12.7435 10.2766 12.7495 10.2558C12.7435 10.235 12.7402 10.2131 12.7402 10.1903C12.7402 10.0609 12.8452 9.95597 12.9746 9.95597H15.4529C15.4962 9.95597 15.5312 9.92093 15.5312 9.87772V6.88112C15.5312 6.87983 15.5312 6.87854 15.5312 6.87724V0.547C15.5312 0.503785 15.4962 0.46875 15.453 0.46875H6.12226C6.07904 0.46875 6.04401 0.503785 6.04401 0.547V3.02534C6.04401 3.15479 5.93907 3.25972 5.80963 3.25972C5.68019 3.25972 5.57526 3.15479 5.57526 3.02534V0.547Z" fill="#939CA3"/>
<path fill-rule="evenodd" clip-rule="evenodd" d="M5.57526 0.547C5.57526 0.244902 5.82016 0 6.12226 0H15.453C15.7551 0 16 0.244902 16 0.547V6.98317C16 6.98447 16 6.98576 15.9999 6.98705V9.87772C15.9999 10.1798 15.755 10.4247 15.4529 10.4247H13.209V12.6687C13.209 12.9708 12.9641 13.2157 12.662 13.2157H10.1903C10.0609 13.2157 9.95594 13.1108 9.95594 12.9813C9.95594 12.8519 10.0609 12.747 10.1903 12.747H12.662C12.7052 12.747 12.7402 12.7119 12.7402 12.6687V10.3212C12.7402 10.2985 12.7435 10.2766 12.7495 10.2558C12.7435 10.235 12.7402 10.2131 12.7402 10.1903C12.7402 10.0609 12.8452 9.95597 12.9746 9.95597H15.4529C15.4962 9.95597 15.5312 9.92093 15.5312 9.87772V6.88112C15.5312 6.87983 15.5312 6.87854 15.5312 6.87724V0.547C15.5312 0.503785 15.4962 0.46875 15.453 0.46875H6.12226C6.07904 0.46875 6.04401 0.503785 6.04401 0.547V3.02534C6.04401 3.15479 5.93907 3.25972 5.80963 3.25972C5.68019 3.25972 5.57526 3.15479 5.57526 3.02534V0.547Z" fill="#939CA3"/>
<path fill-rule="evenodd" clip-rule="evenodd" d="M2.78431 3.338C2.78431 3.0359 3.02921 2.791 3.33131 2.791H12.662C12.9641 2.791 13.209 3.0359 13.209 3.338V10.8785C13.209 11.008 13.1041 11.1129 12.9746 11.1129C12.8452 11.1129 12.7402 11.008 12.7402 10.8785V3.338C12.7402 3.29479 12.7052 3.25975 12.662 3.25975H3.33131C3.2881 3.25975 3.25306 3.29479 3.25306 3.338V5.57528H9.87769C10.1798 5.57528 10.4247 5.82018 10.4247 6.12228V15.4529C10.4247 15.4529 10.4247 15.453 10.4247 15.453C10.4247 15.7551 10.1798 16 9.87772 16H0.547C0.244903 16 0 15.7551 0 15.453V6.12228C0 5.82018 0.244902 5.57528 0.547 5.57528H2.78431V3.338ZM2.70455 6.04403L2.78135 6.12083C2.87288 6.21236 2.87288 6.36076 2.78135 6.45229C2.68982 6.54382 2.54143 6.54382 2.4499 6.45229L2.04164 6.04403H0.814425L0.891228 6.12083C0.982757 6.21236 0.982757 6.36076 0.891228 6.45229C0.799699 6.54382 0.651301 6.54382 0.559772 6.45229L0.46875 6.36127V7.6027L0.891228 8.02518C0.982757 8.11671 0.982757 8.26511 0.891228 8.35664C0.799699 8.44816 0.651301 8.44816 0.559772 8.35664L0.46875 8.26561V9.49283L0.891228 9.9153C0.982757 10.0068 0.982757 10.1552 0.891228 10.2468C0.799699 10.3383 0.651301 10.3383 0.559772 10.2468L0.46875 10.1557V11.383L0.891228 11.8054C0.982757 11.897 0.982757 12.0454 0.891228 12.1369C0.799699 12.2284 0.651301 12.2284 0.559772 12.1369L0.46875 12.0459V13.2731L0.891228 13.6956C0.982757 13.7871 0.982757 13.9355 0.891228 14.027C0.799699 14.1185 0.651301 14.1185 0.559772 14.027L0.46875 13.936V15.453C0.46875 15.4962 0.503784 15.5312 0.547 15.5312H2.06401L1.97299 15.4402C1.88146 15.3487 1.88146 15.2003 1.97299 15.1088C2.06452 15.0172 2.21292 15.0172 2.30445 15.1088L2.72692 15.5312H3.95414L3.86312 15.4402C3.77159 15.3487 3.77159 15.2003 3.86312 15.1088C3.95465 15.0172 4.10304 15.0172 4.19457 15.1088L4.61705 15.5312H5.84426L5.75324 15.4402C5.66171 15.3487 5.66171 15.2003 5.75324 15.1088C5.84477 15.0172 5.99317 15.0172 6.0847 15.1088L6.50717 15.5312H7.73439L7.64337 15.4402C7.55184 15.3487 7.55184 15.2003 7.64337 15.1088C7.7349 15.0172 7.88329 15.0172 7.97482 15.1088L8.3973 15.5312H9.62451L9.53349 15.4402C9.44196 15.3487 9.44196 15.2003 9.53349 15.1088C9.62502 15.0172 9.77342 15.0172 9.86495 15.1088L9.95594 15.1998V13.9726L9.53349 13.5501C9.44196 13.4586 9.44196 13.3102 9.53349 13.2186C9.62502 13.1271 9.77342 13.1271 9.86495 13.2186L9.95594 13.3096V12.0824L9.53349 11.66C9.44196 11.5684 9.44196 11.4201 9.53349 11.3285C9.62502 11.237 9.77342 11.237 9.86495 11.3285L9.95594 11.4195V10.1923L9.53349 9.76985C9.44196 9.67832 9.44196 9.52993 9.53349 9.4384C9.62502 9.34687 9.77342 9.34687 9.86495 9.4384L9.95594 9.52939V8.30218L9.53349 7.87973C9.44196 7.7882 9.44196 7.6398 9.53349 7.54827C9.62502 7.45674 9.77342 7.45674 9.86495 7.54827L9.95594 7.63926V6.12228C9.95594 6.07907 9.9209 6.04403 9.87769 6.04403H8.37493L8.45173 6.12083C8.54326 6.21236 8.54326 6.36076 8.45173 6.45229C8.3602 6.54382 8.2118 6.54382 8.12027 6.45229L7.71201 6.04403H6.4848L6.5616 6.12083C6.65313 6.21236 6.65313 6.36076 6.5616 6.45229C6.47007 6.54382 6.32168 6.54382 6.23015 6.45229L5.82189 6.04403H4.59468L4.67148 6.12083C4.76301 6.21236 4.76301 6.36076 4.67148 6.45229C4.57995 6.54382 4.43155 6.54382 4.34002 6.45229L3.93176 6.04403H2.70455ZM1.83629 6.60321C1.92782 6.69474 1.92782 6.84314 1.83629 6.93467L1.35938 7.41157C1.26786 7.5031 1.11946 7.5031 1.02793 7.41157C0.936399 7.32004 0.936399 7.17165 1.02793 7.08012L1.50483 6.60321C1.59636 6.51168 1.74476 6.51168 1.83629 6.60321ZM3.72642 6.60321C3.81794 6.69474 3.81794 6.84314 3.72642 6.93467L3.24951 7.41157C3.15798 7.5031 3.00958 7.5031 2.91805 7.41157C2.82652 7.32004 2.82652 7.17165 2.91805 7.08012L3.39496 6.60321C3.48649 6.51168 3.63489 6.51168 3.72642 6.60321ZM5.61654 6.60321C5.70807 6.69474 5.70807 6.84314 5.61654 6.93467L5.13963 7.41157C5.04811 7.5031 4.89971 7.5031 4.80818 7.41157C4.71665 7.32004 4.71665 7.17165 4.80818 7.08012L5.28508 6.60321C5.37661 6.51168 5.52501 6.51168 5.61654 6.60321ZM7.50667 6.60321C7.5982 6.69474 7.5982 6.84314 7.50667 6.93467L7.02976 7.41157C6.93823 7.5031 6.78983 7.5031 6.6983 7.41157C6.60677 7.32004 6.60677 7.17165 6.6983 7.08012L7.17521 6.60321C7.26674 6.51168 7.41514 6.51168 7.50667 6.60321ZM9.39679 6.60321C9.48832 6.69474 9.48832 6.84314 9.39679 6.93467L8.91988 7.41157C8.82835 7.5031 8.67996 7.5031 8.58843 7.41157C8.4969 7.32004 8.4969 7.17165 8.58843 7.08012L9.06534 6.60321C9.15686 6.51168 9.30526 6.51168 9.39679 6.60321ZM1.97299 7.87973C1.88146 7.7882 1.88146 7.6398 1.97299 7.54827C2.06452 7.45674 2.21292 7.45674 2.30445 7.54827L2.78135 8.02518C2.87288 8.11671 2.87288 8.26511 2.78135 8.35664C2.68982 8.44816 2.54143 8.44816 2.4499 8.35664L1.97299 7.87973ZM3.86312 7.87973C3.77159 7.7882 3.77159 7.6398 3.86312 7.54827C3.95464 7.45674 4.10304 7.45674 4.19457 7.54827L4.67148 8.02518C4.76301 8.11671 4.76301 8.26511 4.67148 8.35664C4.57995 8.44816 4.43155 8.44816 4.34002 8.35664L3.86312 7.87973ZM5.75324 7.87973C5.66171 7.7882 5.66171 7.6398 5.75324 7.54827C5.84477 7.45674 5.99317 7.45674 6.0847 7.54827L6.5616 8.02518C6.65313 8.11671 6.65313 8.26511 6.5616 8.35664C6.47007 8.44816 6.32168 8.44816 6.23015 8.35664L5.75324 7.87973ZM7.64337 7.87973C7.55184 7.7882 7.55184 7.6398 7.64337 7.54827C7.73489 7.45674 7.88329 7.45674 7.97482 7.54827L8.45173 8.02518C8.54326 8.11671 8.54326 8.26511 8.45173 8.35664C8.3602 8.44816 8.2118 8.44816 8.12027 8.35664L7.64337 7.87973ZM1.83629 8.49333C1.92782 8.58486 1.92782 8.73326 1.83629 8.82479L1.35938 9.3017C1.26786 9.39323 1.11946 9.39323 1.02793 9.3017C0.936399 9.21017 0.936399 9.06177 1.02793 8.97024L1.50483 8.49333C1.59636 8.40181 1.74476 8.40181 1.83629 8.49333ZM3.72642 8.49333C3.81794 8.58486 3.81794 8.73326 3.72642 8.82479L3.24951 9.3017C3.15798 9.39323 3.00958 9.39323 2.91805 9.3017C2.82652 9.21017 2.82652 9.06177 2.91805 8.97024L3.39496 8.49333C3.48649 8.40181 3.63489 8.40181 3.72642 8.49333ZM5.61654 8.49333C5.70807 8.58486 5.70807 8.73326 5.61654 8.82479L5.13963 9.3017C5.04811 9.39323 4.89971 9.39323 4.80818 9.3017C4.71665 9.21017 4.71665 9.06177 4.80818 8.97024L5.28508 8.49333C5.37661 8.40181 5.52501 8.40181 5.61654 8.49333ZM7.50667 8.49333C7.5982 8.58486 7.5982 8.73326 7.50667 8.82479L7.02976 9.3017C6.93823 9.39323 6.78983 9.39323 6.6983 9.3017C6.60677 9.21017 6.60677 9.06177 6.6983 8.97024L7.17521 8.49333C7.26674 8.40181 7.41514 8.40181 7.50667 8.49333ZM9.39679 8.49333C9.48832 8.58486 9.48832 8.73326 9.39679 8.82479L8.91988 9.3017C8.82835 9.39323 8.67996 9.39323 8.58843 9.3017C8.4969 9.21017 8.4969 9.06177 8.58843 8.97024L9.06533 8.49333C9.15686 8.40181 9.30526 8.40181 9.39679 8.49333ZM1.97299 9.76985C1.88146 9.67832 1.88146 9.52993 1.97299 9.4384C2.06452 9.34687 2.21292 9.34687 2.30445 9.4384L2.78135 9.9153C2.87288 10.0068 2.87288 10.1552 2.78135 10.2468C2.68982 10.3383 2.54143 10.3383 2.4499 10.2468L1.97299 9.76985ZM3.86312 9.76985C3.77159 9.67832 3.77159 9.52993 3.86312 9.4384C3.95464 9.34687 4.10304 9.34687 4.19457 9.4384L4.67148 9.9153C4.76301 10.0068 4.76301 10.1552 4.67148 10.2468C4.57995 10.3383 4.43155 10.3383 4.34002 10.2468L3.86312 9.76985ZM5.75324 9.76985C5.66171 9.67832 5.66171 9.52993 5.75324 9.4384C5.84477 9.34687 5.99317 9.34687 6.0847 9.4384L6.5616 9.9153C6.65313 10.0068 6.65313 10.1552 6.5616 10.2468C6.47007 10.3383 6.32168 10.3383 6.23015 10.2468L5.75324 9.76985ZM7.64337 9.76985C7.55184 9.67832 7.55184 9.52993 7.64337 9.4384C7.73489 9.34687 7.88329 9.34687 7.97482 9.4384L8.45173 9.9153C8.54326 10.0068 8.54326 10.1552 8.45173 10.2468C8.3602 10.3383 8.2118 10.3383 8.12027 10.2468L7.64337 9.76985ZM1.83629 10.3835C1.92782 10.475 1.92782 10.6234 1.83629 10.7149L1.35938 11.1918C1.26786 11.2834 1.11946 11.2834 1.02793 11.1918C0.936399 11.1003 0.936399 10.9519 1.02793 10.8604L1.50483 10.3835C1.59636 10.2919 1.74476 10.2919 1.83629 10.3835ZM3.72642 10.3835C3.81794 10.475 3.81794 10.6234 3.72642 10.7149L3.24951 11.1918C3.15798 11.2834 3.00958 11.2834 2.91805 11.1918C2.82652 11.1003 2.82652 10.9519 2.91805 10.8604L3.39496 10.3835C3.48649 10.2919 3.63489 10.2919 3.72642 10.3835ZM5.61654 10.3835C5.70807 10.475 5.70807 10.6234 5.61654 10.7149L5.13963 11.1918C5.04811 11.2834 4.89971 11.2834 4.80818 11.1918C4.71665 11.1003 4.71665 10.9519 4.80818 10.8604L5.28508 10.3835C5.37661 10.2919 5.52501 10.2919 5.61654 10.3835ZM7.50667 10.3835C7.5982 10.475 7.5982 10.6234 7.50667 10.7149L7.02976 11.1918C6.93823 11.2834 6.78983 11.2834 6.6983 11.1918C6.60677 11.1003 6.60677 10.9519 6.6983 10.8604L7.17521 10.3835C7.26674 10.2919 7.41514 10.2919 7.50667 10.3835ZM9.39679 10.3835C9.48832 10.475 9.48832 10.6234 9.39679 10.7149L8.91988 11.1918C8.82835 11.2834 8.67996 11.2834 8.58843 11.1918C8.4969 11.1003 8.4969 10.9519 8.58843 10.8604L9.06534 10.3835C9.15686 10.2919 9.30526 10.2919 9.39679 10.3835ZM1.97299 11.66C1.88146 11.5684 1.88146 11.4201 1.97299 11.3285C2.06452 11.237 2.21292 11.237 2.30445 11.3285L2.78135 11.8054C2.87288 11.897 2.87288 12.0454 2.78135 12.1369C2.68982 12.2284 2.54143 12.2284 2.4499 12.1369L1.97299 11.66ZM3.86312 11.66C3.77159 11.5684 3.77159 11.4201 3.86312 11.3285C3.95464 11.237 4.10304 11.237 4.19457 11.3285L4.67148 11.8054C4.76301 11.897 4.76301 12.0454 4.67148 12.1369C4.57995 12.2284 4.43155 12.2284 4.34002 12.1369L3.86312 11.66ZM5.75324 11.66C5.66171 11.5684 5.66171 11.4201 5.75324 11.3285C5.84477 11.237 5.99317 11.237 6.0847 11.3285L6.5616 11.8054C6.65313 11.897 6.65313 12.0454 6.5616 12.1369C6.47007 12.2284 6.32168 12.2284 6.23015 12.1369L5.75324 11.66ZM7.64337 11.66C7.55184 11.5684 7.55184 11.4201 7.64337 11.3285C7.73489 11.237 7.88329 11.237 7.97482 11.3285L8.45173 11.8054C8.54326 11.897 8.54326 12.0454 8.45173 12.1369C8.3602 12.2284 8.2118 12.2284 8.12027 12.1369L7.64337 11.66ZM1.83629 12.2736C1.92782 12.3651 1.92782 12.5135 1.83629 12.605L1.35938 13.0819C1.26786 13.1735 1.11946 13.1735 1.02793 13.0819C0.936399 12.9904 0.936399 12.842 1.02793 12.7505L1.50483 12.2736C1.59636 12.1821 1.74476 12.1821 1.83629 12.2736ZM3.72642 12.2736C3.81794 12.3651 3.81794 12.5135 3.72642 12.605L3.24951 13.0819C3.15798 13.1735 3.00958 13.1735 2.91805 13.0819C2.82652 12.9904 2.82652 12.842 2.91805 12.7505L3.39496 12.2736C3.48649 12.1821 3.63489 12.1821 3.72642 12.2736ZM5.61654 12.2736C5.70807 12.3651 5.70807 12.5135 5.61654 12.605L5.13963 13.0819C5.0481 13.1735 4.89971 13.1735 4.80818 13.0819C4.71665 12.9904 4.71665 12.842 4.80818 12.7505L5.28508 12.2736C5.37661 12.1821 5.52501 12.1821 5.61654 12.2736ZM7.50667 12.2736C7.5982 12.3651 7.5982 12.5135 7.50667 12.605L7.02976 13.0819C6.93823 13.1735 6.78983 13.1735 6.6983 13.0819C6.60677 12.9904 6.60677 12.842 6.6983 12.7505L7.17521 12.2736C7.26674 12.1821 7.41514 12.1821 7.50667 12.2736ZM9.39679 12.2736C9.48832 12.3651 9.48832 12.5135 9.39679 12.605L8.91988 13.0819C8.82835 13.1735 8.67996 13.1735 8.58843 13.0819C8.4969 12.9904 8.4969 12.842 8.58843 12.7505L9.06534 12.2736C9.15686 12.1821 9.30526 12.1821 9.39679 12.2736ZM1.97299 13.5501C1.88146 13.4586 1.88146 13.3102 1.97299 13.2186C2.06452 13.1271 2.21292 13.1271 2.30445 13.2186L2.78135 13.6956C2.87288 13.7871 2.87288 13.9355 2.78135 14.027C2.68982 14.1185 2.54143 14.1185 2.4499 14.027L1.97299 13.5501ZM3.86312 13.5501C3.77159 13.4586 3.77159 13.3102 3.86312 13.2186C3.95465 13.1271 4.10304 13.1271 4.19457 13.2186L4.67148 13.6956C4.76301 13.7871 4.76301 13.9355 4.67148 14.027C4.57995 14.1185 4.43155 14.1185 4.34002 14.027L3.86312 13.5501ZM5.75324 13.5501C5.66171 13.4586 5.66171 13.3102 5.75324 13.2186C5.84477 13.1271 5.99317 13.1271 6.0847 13.2186L6.5616 13.6956C6.65313 13.7871 6.65313 13.9355 6.5616 14.027C6.47007 14.1185 6.32168 14.1185 6.23015 14.027L5.75324 13.5501ZM7.64337 13.5501C7.55184 13.4586 7.55184 13.3102 7.64337 13.2186C7.7349 13.1271 7.88329 13.1271 7.97482 13.2186L8.45173 13.6956C8.54326 13.7871 8.54326 13.9355 8.45173 14.027C8.3602 14.1185 8.2118 14.1185 8.12027 14.027L7.64337 13.5501ZM1.83629 14.1637C1.92782 14.2552 1.92782 14.4036 1.83629 14.4952L1.35938 14.9721C1.26786 15.0636 1.11946 15.0636 1.02793 14.9721C0.936399 14.8805 0.936399 14.7321 1.02793 14.6406L1.50483 14.1637C1.59636 14.0722 1.74476 14.0722 1.83629 14.1637ZM3.72642 14.1637C3.81794 14.2552 3.81795 14.4036 3.72642 14.4952L3.24951 14.9721C3.15798 15.0636 3.00958 15.0636 2.91805 14.9721C2.82652 14.8805 2.82652 14.7321 2.91805 14.6406L3.39496 14.1637C3.48649 14.0722 3.63489 14.0722 3.72642 14.1637ZM5.61654 14.1637C5.70807 14.2552 5.70807 14.4036 5.61654 14.4952L5.13963 14.9721C5.04811 15.0636 4.89971 15.0636 4.80818 14.9721C4.71665 14.8805 4.71665 14.7321 4.80818 14.6406L5.28508 14.1637C5.37661 14.0722 5.52501 14.0722 5.61654 14.1637ZM7.50667 14.1637C7.59819 14.2552 7.5982 14.4036 7.50667 14.4952L7.02976 14.9721C6.93823 15.0636 6.78983 15.0636 6.6983 14.9721C6.60677 14.8805 6.60677 14.7321 6.6983 14.6406L7.17521 14.1637C7.26674 14.0722 7.41514 14.0722 7.50667 14.1637ZM9.39679 14.1637C9.48832 14.2552 9.48832 14.4036 9.39679 14.4952L8.91988 14.9721C8.82836 15.0636 8.67996 15.0636 8.58843 14.9721C8.4969 14.8805 8.4969 14.7321 8.58843 14.6406L9.06533 14.1637C9.15686 14.0722 9.30526 14.0722 9.39679 14.1637Z" fill="#939CA3"/>
</g>
<defs>
<clipPath id="clip0_2204_3560">
<rect width="16" height="16" fill="white"/>
</clipPath>
</defs>
</svg>
