<svg width="16" height="16" viewBox="0 0 16 16" fill="none" xmlns="http://www.w3.org/2000/svg">
<g clip-path="url(#clip0_2155_209)">
<path d="M12.8437 8.21444V6.71875C12.8437 4.53681 11.3934 2.68747 9.40625 2.08344V1.40625C9.40625 0.630844 8.7754 0 8 0C7.22459 0 6.59375 0.630844 6.59375 1.40625V2.08344C4.60656 2.68747 3.15625 4.53678 3.15625 6.71875V8.21444C3.15625 10.1311 2.42568 11.9484 1.09915 13.3318C1.03555 13.3981 0.992834 13.4817 0.976321 13.572C0.959808 13.6624 0.970224 13.7557 1.00627 13.8402C1.04232 13.9247 1.10242 13.9968 1.17909 14.0474C1.25575 14.098 1.34561 14.125 1.4375 14.125H5.7034C5.92115 15.1935 6.86815 16 8 16C9.13187 16 10.0788 15.1935 10.2966 14.125H14.5625C14.6544 14.125 14.7442 14.098 14.8209 14.0474C14.8975 13.9967 14.9576 13.9247 14.9937 13.8402C15.0297 13.7557 15.0401 13.6624 15.0236 13.572C15.0071 13.4817 14.9644 13.3981 14.9008 13.3318C13.5743 11.9484 12.8437 10.131 12.8437 8.21444ZM7.53125 1.40625C7.53125 1.14778 7.74153 0.9375 8 0.9375C8.25846 0.9375 8.46875 1.14778 8.46875 1.40625V1.89775C8.31446 1.88287 8.15812 1.875 8 1.875C7.84187 1.875 7.68553 1.88287 7.53125 1.89775V1.40625ZM8 15.0625C7.3889 15.0625 6.86787 14.6706 6.67437 14.125H9.32562C9.13212 14.6706 8.61109 15.0625 8 15.0625ZM2.44781 13.1875C3.51534 11.7565 4.09375 10.0247 4.09375 8.21444V6.71875C4.09375 4.56484 5.84609 2.8125 8 2.8125C10.1539 2.8125 11.9062 4.56484 11.9062 6.71875V8.21444C11.9062 10.0247 12.4847 11.7565 13.5522 13.1875H2.44781ZM14.0937 6.71875C14.0937 6.97762 14.3036 7.1875 14.5625 7.1875C14.8214 7.1875 15.0312 6.97762 15.0312 6.71875C15.0312 4.84062 14.2999 3.07491 12.9718 1.74688C12.7888 1.56384 12.492 1.56381 12.3089 1.74688C12.1259 1.92994 12.1259 2.22672 12.3089 2.40978C13.4599 3.56075 14.0937 5.09103 14.0937 6.71875ZM1.4375 7.1875C1.69637 7.1875 1.90625 6.97762 1.90625 6.71875C1.90625 5.09106 2.54012 3.56078 3.69106 2.40981C3.87412 2.22675 3.87412 1.92997 3.69106 1.74691C3.50803 1.56384 3.21121 1.56384 3.02815 1.74691C1.70012 3.07494 0.968745 4.84062 0.968745 6.71875C0.968745 6.97762 1.17862 7.1875 1.4375 7.1875Z" fill="#939CA3">
</g>
<defs>
<clipPath id="clip0_2155_209">
<rect width="16" height="16" fill="white">
</clipPath>
</defs>
</svg>
