<svg width="16" height="16" viewBox="0 0 16 16" fill="none" xmlns="http://www.w3.org/2000/svg">
<path d="M14.9996 11.1686C14.8925 11.4166 14.7036 11.5004 14.4353 11.5C10.138 11.4949 5.84081 11.4964 1.54358 11.4964C1.15458 11.4964 1 11.3408 1 10.9497C1 8.97825 1 7.00718 1 5.03611C1 4.66134 1.15677 4.50364 1.53009 4.50364C5.83206 4.50364 10.1337 4.5051 14.4356 4.5C14.704 4.49964 14.8928 4.58304 15 4.83143C14.9996 6.94381 14.9996 9.05619 14.9996 11.1686ZM8.00383 6.25182C6.41392 6.25182 4.82401 6.25146 3.23411 6.25219C2.92604 6.25219 2.75105 6.427 2.75032 6.73439C2.74923 7.13939 2.75287 7.54438 2.7485 7.94938C2.74667 8.11072 2.80428 8.23746 2.91802 8.34964C3.32926 8.75609 3.73868 9.16436 4.14518 9.57591C4.26111 9.69355 4.39163 9.74964 4.55788 9.74964C6.85396 9.74745 9.15005 9.74745 11.4461 9.74927C11.6014 9.74927 11.7287 9.70192 11.8381 9.59157C12.2555 9.17164 12.6744 8.75354 13.0944 8.33652C13.2008 8.23091 13.2515 8.10853 13.2504 7.95812C13.2475 7.56223 13.2497 7.16634 13.2493 6.77045C13.249 6.41717 13.0845 6.25219 12.7324 6.25219C11.1563 6.25182 9.58025 6.25182 8.00383 6.25182Z" fill="#939CA3"/>
<path d="M3.62493 7.13137C4.06716 7.13137 4.49335 7.13137 4.9374 7.13137C4.9374 7.26977 4.93594 7.40453 4.93776 7.53928C4.94104 7.80479 5.12771 8 5.37562 7.99964C5.62389 7.99927 5.80873 7.80442 5.81201 7.53783C5.81383 7.40635 5.81237 7.27523 5.81237 7.13502C6.10513 7.13502 6.38877 7.13502 6.68735 7.13502C6.68735 7.27305 6.68589 7.40817 6.68772 7.54329C6.69136 7.80734 6.88094 8.00219 7.12958 7.99964C7.37239 7.99709 7.55759 7.80515 7.56196 7.54766C7.56415 7.41218 7.56233 7.27669 7.56233 7.13356C7.85435 7.13356 8.13507 7.13356 8.43731 7.13356C8.43731 7.25994 8.43658 7.38996 8.43731 7.51962C8.43913 7.79932 8.61704 7.99672 8.86969 7.99927C9.12817 8.00219 9.31046 7.80333 9.31228 7.51597C9.31301 7.39324 9.31228 7.2705 9.31228 7.13647C9.6003 7.13647 9.8843 7.13647 10.1873 7.13647C10.1873 7.26285 10.1865 7.39324 10.1873 7.52326C10.1891 7.80115 10.3706 7.99854 10.6233 7.99927C10.8767 8 11.0593 7.80297 11.0619 7.52581C11.063 7.3987 11.0622 7.27196 11.0622 7.13538C11.499 7.13538 11.9288 7.13538 12.374 7.13538C12.374 7.35281 12.3762 7.56988 12.3714 7.78658C12.3707 7.81681 12.3415 7.85068 12.3175 7.87508C12.0061 8.18829 11.6951 8.50187 11.3791 8.81035C11.3422 8.84641 11.2773 8.87118 11.2256 8.87154C9.07531 8.87445 6.92469 8.87445 4.77443 8.87154C4.72266 8.87154 4.65777 8.84641 4.62095 8.81035C4.30486 8.50187 3.99315 8.18866 3.6829 7.87471C3.6541 7.84558 3.62858 7.79896 3.62748 7.75999C3.62201 7.55567 3.62493 7.35099 3.62493 7.13137Z" fill="#939CA3"/>
</svg>
