<svg width="16" height="16" viewBox="0 0 16 16" fill="none" xmlns="http://www.w3.org/2000/svg">
<path fill-rule="evenodd" clip-rule="evenodd" d="M8.75497 1.40299C8.41657 0.819063 7.57145 0.805906 7.21471 1.37901L6.28155 2.87818L8.06542 3.05862C8.12656 3.06481 8.18818 3.06474 8.2493 3.05843L9.63162 2.9157L8.75497 1.40299ZM10.6821 2.80722L9.59209 0.926288C8.88926 -0.28649 7.13401 -0.313816 6.3931 0.876487L5.21434 2.77023L3.35408 2.58207C2.0892 2.45412 1.0699 3.5927 1.3484 4.82244L1.87681 7.15578L0.507796 8.5951C-0.393099 9.54226 -0.0483039 11.0914 1.171 11.5749L3.04595 12.3183L3.55302 14.5574C3.82783 15.7708 5.21013 16.373 6.29779 15.7531L8.12659 14.7107L9.97721 15.7077C11.1425 16.3355 12.5774 15.5886 12.7177 14.2813L12.9248 12.3515L14.884 11.5018C16.0958 10.9763 16.3838 9.40074 15.435 8.48709L14.018 7.12254L14.6604 4.95728C15.0342 3.69754 13.9988 2.46475 12.6813 2.60079L10.6821 2.80722ZM10.1577 3.82355L8.34933 4.01028C8.22237 4.02339 8.0944 4.02352 7.96742 4.01068L5.71824 3.78317L4.50497 5.73235C4.43871 5.8388 4.3617 5.93831 4.27513 6.02932L2.93116 7.44231L3.87656 11.6169L5.88096 12.4117L8.11331 13.6143L9.73311 12.6911L12.0241 11.6975L12.216 9.90993C12.2278 9.7997 12.2496 9.69074 12.2812 9.58439L12.9274 7.40656L11.546 6.07639C11.4219 5.95683 11.3151 5.82069 11.2289 5.6719L10.1577 3.82355ZM13.2353 6.36885L12.2187 5.38995C12.1589 5.33238 12.1075 5.26684 12.066 5.1952L11.2083 3.71507L12.7813 3.55264C13.4157 3.48714 13.9142 4.08071 13.7342 4.68725L13.2353 6.36885ZM13.7101 8.16026L13.2074 9.85443C13.1922 9.90563 13.1817 9.95809 13.176 10.0112L13.0424 11.2559L14.497 10.6251C15.0805 10.372 15.2191 9.61343 14.7623 9.17353L13.7101 8.16026ZM11.9066 12.7931L10.1685 13.5468L9.10899 14.1508L10.4382 14.8669C10.9993 15.1691 11.6902 14.8095 11.7577 14.1801L11.9066 12.7931ZM7.13091 14.1743L5.46977 13.2794L4.13302 12.7493L4.495 14.3477C4.62732 14.932 5.29287 15.2219 5.81655 14.9235L7.13091 14.1743ZM2.7895 11.1859L2.13198 8.28252L1.21023 9.25161C0.776465 9.70765 0.942475 10.4535 1.52955 10.6863L2.7895 11.1859ZM2.67599 6.31556L3.5727 5.37281C3.61438 5.32898 3.65146 5.28108 3.68336 5.22982L4.65102 3.67522L3.25607 3.53412C2.64706 3.47252 2.15628 4.02072 2.29037 4.61282L2.67599 6.31556Z" fill="#9CA3AF"/>
</svg>
