<svg width="16" height="16" viewBox="0 0 16 16" fill="none" xmlns="http://www.w3.org/2000/svg">
<g clip-path="url(#clip0_3573_38)">
<path d="M4.31222 12.3622C4.64388 12.3386 4.89362 12.0506 4.87002 11.719C4.84642 11.3873 4.55842 11.1376 4.22676 11.1612C3.89509 11.1848 3.64535 11.4728 3.66895 11.8044C3.69255 12.1361 3.98055 12.3858 4.31222 12.3622Z" fill="#939CA3">
<path d="M4.26862 10.6741C4.48998 10.6741 4.66943 10.4947 4.66943 10.2733C4.66943 10.0519 4.48998 9.8725 4.26862 9.8725C4.04725 9.8725 3.8678 10.0519 3.8678 10.2733C3.8678 10.4947 4.04725 10.6741 4.26862 10.6741Z" fill="#939CA3">
<path d="M4.26862 13.6516C4.48998 13.6516 4.66943 13.4722 4.66943 13.2508C4.66943 13.0295 4.48998 12.85 4.26862 12.85C4.04725 12.85 3.8678 13.0295 3.8678 13.2508C3.8678 13.4722 4.04725 13.6516 4.26862 13.6516Z" fill="#939CA3">
<path d="M5.75739 12.1629C5.97872 12.1629 6.1582 11.9834 6.1582 11.7621C6.1582 11.5408 5.97872 11.3613 5.75739 11.3613C5.53605 11.3613 5.35657 11.5408 5.35657 11.7621C5.35657 11.9834 5.53605 12.1629 5.75739 12.1629Z" fill="#939CA3">
<path d="M2.77985 11.361C2.55852 11.361 2.37903 11.5405 2.37903 11.7618C2.37903 11.9831 2.55852 12.1626 2.77985 12.1626C3.00118 12.1626 3.18066 11.9831 3.18066 11.7618C3.18066 11.5405 3.00118 11.361 2.77985 11.361Z" fill="#939CA3">
<path d="M8.08766 4.29959C8.34974 4.29959 8.56198 4.08707 8.56198 3.82527C8.56198 3.56347 8.34946 3.35095 8.08766 3.35095C7.82586 3.35095 7.61334 3.56347 7.61334 3.82527C7.61334 4.08707 7.82586 4.29959 8.08766 4.29959Z" fill="#939CA3">
<path d="M8.08767 2.96803C8.2622 2.96803 8.40342 2.82653 8.40342 2.65227C8.40342 2.47801 8.26192 2.33652 8.08767 2.33652C7.91341 2.33652 7.77191 2.47801 7.77191 2.65227C7.77191 2.82653 7.91341 2.96803 8.08767 2.96803Z" fill="#939CA3">
<path d="M8.08767 4.68198C7.91313 4.68198 7.77191 4.82347 7.77191 4.99773C7.77191 5.17199 7.91341 5.31348 8.08767 5.31348C8.26192 5.31348 8.40342 5.17199 8.40342 4.99773C8.40342 4.82347 8.26192 4.68198 8.08767 4.68198Z" fill="#939CA3">
<path d="M9.2607 4.14103C9.43523 4.14103 9.57645 3.99953 9.57645 3.82528C9.57645 3.65102 9.43496 3.50952 9.2607 3.50952C9.08644 3.50952 8.94495 3.65102 8.94495 3.82528C8.94495 3.99953 9.08644 4.14103 9.2607 4.14103Z" fill="#939CA3">
<path d="M6.91494 4.14076C7.08932 4.14076 7.23069 3.99939 7.23069 3.825C7.23069 3.65061 7.08932 3.50925 6.91494 3.50925C6.74055 3.50925 6.59918 3.65061 6.59918 3.825C6.59918 3.99939 6.74055 4.14076 6.91494 4.14076Z" fill="#939CA3">
<path d="M14.9693 11.4502C14.9693 11.1085 14.9016 10.7823 14.7788 10.4842C14.7761 10.4768 14.773 10.4696 14.77 10.4624C14.7163 10.3355 14.6527 10.2139 14.5801 10.0985L10.6022 2.53638C10.5994 2.53115 10.5961 2.52647 10.5933 2.52124C10.1215 1.61802 9.17562 1 8.08769 1C7.19052 1 6.38999 1.42036 5.8719 2.07445C5.85924 2.08876 5.8474 2.1039 5.83666 2.12014C5.66764 2.34258 5.53082 2.59061 5.43337 2.85764L1.49649 10.0889C1.49539 10.0911 1.49428 10.0936 1.49318 10.0958C1.19973 10.583 1.0307 11.1531 1.0307 11.7621C1.0307 13.5476 2.48312 15 4.26863 15C4.48638 15 4.6989 14.9783 4.90454 14.9372L12.3816 13.9966C12.3951 13.9966 12.4089 13.9971 12.4224 13.9971C12.6698 13.9971 12.9093 13.9613 13.1359 13.8953C13.1392 13.8942 13.1428 13.8933 13.1464 13.8922C14.1991 13.5795 14.9693 12.6034 14.9693 11.4504V11.4502ZM12.9382 13.1495L12.345 13.2241C11.4016 13.1834 10.6465 12.4035 10.6465 11.4502C10.6465 10.4969 11.4432 9.6743 12.4224 9.6743C13.0467 9.6743 13.5962 9.99831 13.913 10.4867L14.0644 10.7743C14.1506 10.9827 14.1985 11.2109 14.1985 11.4502C14.1985 12.2502 13.6667 12.9279 12.9382 13.1495ZM8.08769 1.7708C9.22049 1.7708 10.1419 2.69247 10.1419 3.825C10.1419 4.95753 9.22049 5.87919 8.08769 5.87919C6.95488 5.87919 6.03349 4.9578 6.03349 3.825C6.03349 3.59541 6.07203 3.3749 6.14168 3.16844L6.47753 2.55152C6.85412 2.07637 7.43581 1.77053 8.08769 1.77053V1.7708ZM1.8015 11.7621C1.8015 10.4016 2.90816 9.29495 4.26863 9.29495C5.6291 9.29495 6.73575 10.4016 6.73575 11.7621C6.73575 12.9477 5.89502 13.9407 4.77818 14.1761L4.37626 14.2267C4.34048 14.2284 4.30469 14.2292 4.26863 14.2292C2.90816 14.2292 1.8015 13.1225 1.8015 11.7621ZM6.66362 13.9388C7.18722 13.3634 7.50655 12.5992 7.50655 11.7618C7.50655 9.97629 6.05414 8.52387 4.26863 8.52387C3.86038 8.52387 3.46947 8.60013 3.10912 8.7386L5.36785 4.58974C5.70205 5.77706 6.79494 6.64999 8.08769 6.64999C9.38043 6.64999 10.4761 5.77458 10.8089 4.58479L13.1337 9.00452C12.908 8.93873 12.6693 8.90349 12.4226 8.90349C11.0184 8.90349 9.87595 10.0459 9.87595 11.4502C9.87595 12.2419 10.2391 12.9502 10.8072 13.4176L6.66362 13.939V13.9388Z" fill="#939CA3">
<path d="M12.4226 10.7006C12.0086 10.7006 11.673 11.0361 11.673 11.4502C11.673 11.8642 12.0086 12.1998 12.4226 12.1998C12.8367 12.1998 13.1722 11.8642 13.1722 11.4502C13.1722 11.0361 12.8367 10.7006 12.4226 10.7006Z" fill="#939CA3">
</g>
<defs>
<clipPath id="clip0_3573_38">
<rect width="13.9386" height="14" fill="white" transform="translate(1.0307 1)">
</clipPath>
</defs>
</svg>
