<svg width="16" height="16" viewBox="0 0 16 16" fill="none" xmlns="http://www.w3.org/2000/svg">
<g clip-path="url(#clip0_4047_3568)">
<path d="M8.468 6.36426C8.468 6.36426 8.46884 6.36566 8.4694 6.36622C8.94309 7.06417 9.38123 7.79738 9.77038 8.5432C9.81069 8.62467 9.88068 8.6857 9.96691 8.71482C10.0027 8.72685 10.0394 8.73273 10.0761 8.73273C10.1279 8.73273 10.1794 8.7207 10.2273 8.69718C10.2936 8.66414 10.3482 8.60955 10.3801 8.54544C10.7701 7.79738 11.2083 7.06417 11.6836 6.36426L11.7643 6.24024C12.1447 5.65484 12.484 5.07001 12.456 4.35387C12.4457 4.08426 12.3919 3.81942 12.2959 3.56522C11.8135 2.34095 10.4255 1.73735 9.20122 2.21973C8.58782 2.46133 8.09733 2.95182 7.85517 3.5669C7.7597 3.81942 7.70623 4.08426 7.69559 4.35387C7.66759 5.07001 8.0069 5.65484 8.38737 6.24052L8.468 6.36426ZM10.7057 2.8558C11.1394 3.02825 11.4868 3.37596 11.6584 3.80738C11.7279 3.99132 11.7671 4.18421 11.7746 4.38046C11.7948 4.89671 11.5106 5.37908 11.1923 5.86873L11.1094 5.99612C10.7592 6.5342 10.3983 7.0888 10.0755 7.66384C9.75134 7.086 9.38991 6.53112 9.03912 5.99248L8.95849 5.86873C8.6413 5.38048 8.35798 4.89979 8.37589 4.3855C8.37589 4.38382 8.37589 4.38214 8.37617 4.38046C8.38373 4.18421 8.42293 3.99132 8.49152 3.80962C8.83895 2.93642 9.83225 2.50864 10.7054 2.85608L10.7057 2.8558Z" fill="#939CA3"/>
<path d="M14.9398 10.0046L14.5073 9.55419C14.425 9.4688 14.3021 9.43185 14.1859 9.45816L13.1509 9.69417L12.3765 8.59756C12.3508 8.56117 12.3186 8.53037 12.2808 8.50658L11.6674 8.11799L11.3642 7.54659C11.3429 7.50656 11.302 7.48108 11.2567 7.47968C11.211 7.47828 11.1691 7.50124 11.1453 7.53987C11.0568 7.68461 10.97 7.83159 10.8871 7.97661C10.8656 8.01413 10.865 8.06004 10.8852 8.09811L11.1075 8.51694C11.1352 8.56929 11.1763 8.61352 11.2262 8.64488L11.8586 9.0455L12.7256 10.2734C12.8057 10.386 12.9443 10.4391 13.0795 10.4089L14.1492 10.1651L14.3024 10.3246L13.8642 11.5567L10.4375 12.519C10.353 12.5428 10.2816 12.5974 10.2368 12.673L9.89271 13.2516L9.19057 12.7841C9.11022 12.7303 9.01056 12.7135 8.91705 12.7376L7.59227 13.0764C7.51221 13.0968 7.4425 13.1452 7.39602 13.2133L7.06483 13.6937H6.80027L4.85006 10.8798L4.82598 10.08C4.82402 10.0189 4.80583 9.95929 4.77307 9.9075L2.98832 7.09613C2.93821 7.01718 2.85674 6.96175 2.76519 6.94412L2.03001 6.80245L1.80856 6.23609L3.13922 5.60562C3.17169 5.59022 3.19633 5.56167 3.20613 5.52695C3.21621 5.49224 3.21089 5.455 3.19157 5.42449C3.11542 5.30382 3.03619 5.18064 2.9564 5.0583C2.92197 5.00567 2.85394 4.98635 2.79683 5.01323L1.22905 5.75596C1.06807 5.83239 0.992759 6.0222 1.05771 6.18794L1.46337 7.2252C1.50621 7.33466 1.60083 7.41333 1.71618 7.43573L2.49111 7.58523L4.14708 10.1936L4.17115 11.0007C4.17311 11.0668 4.19411 11.1304 4.23191 11.1847L6.34113 14.2281C6.40468 14.32 6.50939 14.3748 6.62109 14.3748H7.24344C7.35543 14.3748 7.46041 14.3197 7.52396 14.2276L7.88427 13.7049L8.93861 13.4353L9.81292 14.0176C9.96942 14.1217 10.1814 14.0792 10.2852 13.9233C10.2886 13.9185 10.2917 13.9135 10.2947 13.9081L10.7525 13.138L14.2181 12.1651C14.3245 12.1351 14.4102 12.0551 14.4471 11.9512L15.0149 10.3543C15.0583 10.232 15.0294 10.0979 14.9396 10.0041L14.9398 10.0046Z" fill="#939CA3"/>
<path d="M10.0755 5.42244C10.5975 5.42244 11.0222 4.99776 11.0222 4.47575C11.0222 3.95373 10.5975 3.52905 10.0755 3.52905C9.5535 3.52905 9.12881 3.95373 9.12881 4.47592C9.12934 4.99741 9.55402 5.42192 10.0755 5.42262V5.42244ZM10.0757 3.95286C10.364 3.95286 10.5984 4.1874 10.5984 4.47575C10.5984 4.76409 10.3639 4.99863 10.0755 4.99863C9.78717 4.99863 9.55262 4.76409 9.55262 4.47592C9.55297 4.18793 9.78751 3.95338 10.0755 3.95304L10.0757 3.95286Z" fill="#939CA3"/>
<path d="M5.86687 4.50253L7.59227 5.69264C7.61383 5.70748 7.63874 5.71504 7.66366 5.71504C7.69278 5.71504 7.72161 5.70496 7.74485 5.68536C7.78824 5.64869 7.80168 5.58737 7.77788 5.53586C7.68242 5.33093 7.61075 5.1148 7.56427 4.89363C7.55923 4.86032 7.54104 4.82924 7.51136 4.8088L6.18155 3.89165C6.14879 3.86897 6.10736 3.86338 6.06984 3.87597C6.03233 3.88857 6.00265 3.91825 5.99033 3.95604C5.94666 4.0879 5.89179 4.21725 5.82684 4.34015C5.79688 4.3967 5.81424 4.46641 5.86659 4.50281L5.86687 4.50253Z" fill="#939CA3"/>
<path d="M2.98077 4.77047C3.30217 5.24136 3.59949 5.73633 3.86321 6.23886C3.92284 6.3584 4.04351 6.42755 4.16893 6.42755C4.21988 6.42755 4.27167 6.41608 4.32039 6.39172C4.38618 6.35896 4.44049 6.30465 4.47213 6.2411C4.73697 5.73633 5.03429 5.24136 5.35708 4.76851L5.41335 4.68256C5.6838 4.26878 5.92484 3.85415 5.90412 3.33455C5.89657 3.13885 5.85765 2.94708 5.78794 2.76371C5.5329 2.09712 4.88227 1.65394 4.16809 1.6643C4.16081 1.6643 4.15381 1.6643 4.14653 1.6643C3.44131 1.6643 2.80104 2.10384 2.54851 2.76427C2.47908 2.94708 2.43989 3.13885 2.43261 3.33427C2.41189 3.85387 2.65294 4.2685 2.92366 4.68284L2.98105 4.77047H2.98077ZM3.11348 3.36114C3.11823 3.23936 3.14259 3.11982 3.18599 3.00559C3.3366 2.60833 3.71875 2.34545 4.14205 2.34545C4.14989 2.34545 4.15773 2.34545 4.16557 2.34545C4.16753 2.34545 4.16949 2.34545 4.17145 2.34545C4.60455 2.33593 4.99761 2.60049 5.15103 3.00531C5.19358 3.11758 5.21794 3.23572 5.22326 3.35582C5.22326 3.3575 5.22326 3.35918 5.22326 3.36086C5.23586 3.68002 5.05836 3.97902 4.84279 4.30909L4.7868 4.39476C4.57963 4.71139 4.3663 5.03671 4.16837 5.37434C3.96988 5.03587 3.75683 4.71083 3.54993 4.39476L3.49394 4.30909C3.27837 3.97902 3.10088 3.68002 3.11348 3.36058V3.36114Z" fill="#939CA3"/>
<path d="M6.20871 7.91026C5.76581 8.08664 5.41082 8.44191 5.23444 8.88453C5.2336 8.88649 5.23304 8.88845 5.2322 8.8904C5.16361 9.0721 5.12526 9.26275 5.1177 9.45649C5.09698 9.97609 5.33803 10.3907 5.60875 10.8048L5.66586 10.8921C5.98754 11.3633 6.28486 11.8583 6.54858 12.3608C6.60821 12.4803 6.72887 12.5495 6.85402 12.5495C6.90497 12.5495 6.95676 12.538 7.00548 12.5137C7.07127 12.4809 7.12558 12.4266 7.15721 12.363C7.42234 11.858 7.71966 11.363 8.04245 10.8899L8.09844 10.8045C8.36888 10.3907 8.60993 9.97637 8.58921 9.45649C8.58165 9.26107 8.54274 9.06902 8.47247 8.88425C8.11692 7.99145 7.1015 7.55443 6.20871 7.90998V7.91026ZM7.52788 10.4319L7.47049 10.5198C7.2636 10.8359 7.05055 11.1612 6.85346 11.4974C6.6558 11.1603 6.44247 10.8345 6.23474 10.5173L6.17903 10.4324C5.96346 10.1024 5.78597 9.80308 5.79856 9.48392C5.80332 9.36242 5.82768 9.24344 5.87051 9.12977C6.09112 8.58833 6.71068 8.32656 7.25268 8.54661C7.5164 8.65356 7.72917 8.86633 7.83668 9.12977C7.87951 9.24316 7.90359 9.36186 7.90863 9.4828C7.90863 9.48308 7.90863 9.48336 7.90863 9.48392C7.92123 9.80336 7.74373 10.1024 7.52816 10.4324L7.52788 10.4319Z" fill="#939CA3"/>
<path d="M4.16817 3.77848C4.376 3.77848 4.54512 3.60936 4.54512 3.40154C4.54488 3.19396 4.37588 3.02496 4.16829 3.02472C3.96047 3.02472 3.79135 3.19384 3.79135 3.40154C3.79135 3.60924 3.96047 3.77848 4.16829 3.77848H4.16817ZM4.08391 3.40154C4.08391 3.35514 4.12166 3.31728 4.16817 3.31728C4.21469 3.31728 4.25243 3.35502 4.25243 3.40142C4.25243 3.44782 4.21457 3.48568 4.16817 3.48568C4.12178 3.48568 4.08391 3.44782 4.08391 3.40142V3.40154Z" fill="#939CA3"/>
<path d="M6.85338 9.18047C6.6641 9.18047 6.51007 9.3345 6.51007 9.52378C6.51029 9.71284 6.66421 9.86675 6.85327 9.86697C7.04255 9.86697 7.19658 9.71294 7.19658 9.52367C7.19658 9.33439 7.04255 9.18036 6.85327 9.18036L6.85338 9.18047ZM6.85338 9.44693C6.89574 9.44693 6.93012 9.4813 6.93012 9.52367C6.93012 9.56603 6.89574 9.60041 6.85338 9.60041C6.81101 9.60041 6.77664 9.56603 6.77664 9.52378C6.77664 9.48152 6.81112 9.44704 6.85338 9.44704V9.44693Z" fill="#939CA3"/>
</g>
<defs>
<clipPath id="clip0_4047_3568">
<rect width="14" height="12.7113" fill="white" transform="translate(1.03503 1.66431)"/>
</clipPath>
</defs>
</svg>
